<svg width="91" height="91" viewBox="0 0 91 91" fill="none" xmlns="http://www.w3.org/2000/svg">
<g clip-path="url(#clip0_258_7145)">
<path d="M67.5298 16.9487C67.2265 16.9487 66.9232 16.8728 66.6578 16.7212C59.3778 12.9674 53.0836 11.3749 45.5382 11.3749C38.0307 11.3749 30.9023 13.157 24.4186 16.7212C23.5086 17.2141 22.3711 16.8728 21.8403 15.9628C21.3473 15.0528 21.6886 13.8774 22.5986 13.3845C29.6511 9.55492 37.3861 7.58325 45.5382 7.58325C53.6144 7.58325 60.6669 9.36534 68.4019 13.3466C69.3498 13.8395 69.6911 14.977 69.1982 15.887C68.8569 16.5695 68.2123 16.9487 67.5298 16.9487ZM13.2711 36.8549C12.8919 36.8549 12.5128 36.7412 12.1715 36.5137C11.2994 35.907 11.1098 34.7316 11.7165 33.8595C15.4703 28.5512 20.2478 24.3803 25.9353 21.4608C37.8411 15.3183 53.0836 15.2803 65.0273 21.4228C70.7148 24.3424 75.4923 28.4753 79.2461 33.7457C79.8528 34.5799 79.6632 35.7933 78.7911 36.3999C77.919 37.0066 76.7436 36.817 76.1369 35.9449C72.7244 31.1674 68.4019 27.4137 63.2832 24.7974C52.4011 19.2237 38.4857 19.2237 27.6415 24.8353C22.4848 27.4895 18.1623 31.2812 14.7498 36.0587C14.4465 36.5895 13.8778 36.8549 13.2711 36.8549ZM36.969 82.6203C36.4761 82.6203 35.9832 82.4307 35.6419 82.0516C32.3432 78.7528 30.5611 76.6295 28.0207 72.0416C25.4044 67.3778 24.0394 61.6903 24.0394 55.5858C24.0394 44.3245 33.6703 35.1487 45.5003 35.1487C57.3303 35.1487 66.9611 44.3245 66.9611 55.5858C66.9611 56.6474 66.1269 57.4816 65.0653 57.4816C64.0036 57.4816 63.1694 56.6474 63.1694 55.5858C63.1694 46.4099 55.2448 38.9403 45.5003 38.9403C35.7557 38.9403 27.8311 46.4099 27.8311 55.5858C27.8311 61.0457 29.0444 66.0887 31.3573 70.1837C33.784 74.5441 35.4523 76.402 38.3719 79.3595C39.0923 80.1178 39.0923 81.2932 38.3719 82.0516C37.9548 82.4307 37.4619 82.6203 36.969 82.6203ZM64.1553 75.6058C59.6432 75.6058 55.6619 74.4682 52.4011 72.2312C46.7515 68.4016 43.3769 62.1833 43.3769 55.5858C43.3769 54.5241 44.2111 53.6899 45.2728 53.6899C46.3344 53.6899 47.1686 54.5241 47.1686 55.5858C47.1686 60.932 49.8986 65.9749 54.5244 69.0841C57.2165 70.9041 60.3636 71.7762 64.1553 71.7762C65.0653 71.7762 66.5819 71.6624 68.0986 71.397C69.1223 71.2074 70.1082 71.8899 70.2978 72.9516C70.4873 73.9753 69.8048 74.9612 68.7432 75.1507C66.5819 75.5678 64.6861 75.6058 64.1553 75.6058ZM56.534 83.4166C56.3823 83.4166 56.1928 83.3787 56.0411 83.3407C50.0123 81.6724 46.069 79.4353 41.9361 75.3782C36.6278 70.1078 33.7082 63.0933 33.7082 55.5858C33.7082 49.4432 38.9407 44.4383 45.3865 44.4383C51.8323 44.4383 57.0648 49.4432 57.0648 55.5858C57.0648 59.6428 60.5911 62.9416 64.9515 62.9416C69.3119 62.9416 72.8382 59.6428 72.8382 55.5858C72.8382 41.2912 60.5153 29.6887 45.3486 29.6887C34.5803 29.6887 24.7219 35.6795 20.2857 44.9691C18.8069 48.0403 18.0486 51.6424 18.0486 55.5858C18.0486 58.5432 18.314 63.207 20.589 69.2737C20.9682 70.2595 20.4753 71.3591 19.4894 71.7003C18.5036 72.0795 17.404 71.5487 17.0628 70.6008C15.2048 65.6337 14.2948 60.7045 14.2948 55.5858C14.2948 51.0357 15.1669 46.9028 16.8732 43.3008C21.9161 32.722 33.1015 25.8591 45.3486 25.8591C62.6007 25.8591 76.6298 39.1678 76.6298 55.5478C76.6298 61.6903 71.3973 66.6953 64.9515 66.6953C58.5057 66.6953 53.2732 61.6903 53.2732 55.5478C53.2732 51.4907 49.7469 48.192 45.3865 48.192C41.0261 48.192 37.4998 51.4907 37.4998 55.5478C37.4998 62.0316 40.0023 68.0982 44.5903 72.6482C48.1923 76.2124 51.6428 78.1841 56.989 79.6628C58.0128 79.9283 58.5815 80.9899 58.3161 81.9758C58.1265 82.8478 57.3303 83.4166 56.534 83.4166Z" fill="#4318FF"/>
</g>
<defs>
<clipPath id="clip0_258_7145">
<rect width="91" height="91" fill="white"/>
</clipPath>
</defs>
</svg>
