<svg width="26" height="26" viewBox="0 0 26 26" fill="none" xmlns="http://www.w3.org/2000/svg">
<path d="M8.82898 12.6641C9.90642 12.6641 10.9397 12.236 11.7016 11.4742C12.4635 10.7123 12.8915 9.679 12.8915 8.60156C12.8915 7.52412 12.4635 6.49081 11.7016 5.72894C10.9397 4.96707 9.90642 4.53906 8.82898 4.53906C7.75154 4.53906 6.71822 4.96707 5.95636 5.72894C5.19449 6.49081 4.76648 7.52412 4.76648 8.60156C4.76648 9.679 5.19449 10.7123 5.95636 11.4742C6.71822 12.236 7.75154 12.6641 8.82898 12.6641ZM15.9377 19.0953C16.6002 19.3666 17.4427 19.5391 18.5152 19.5391C23.5152 19.5391 23.5152 15.7891 23.5152 15.7891C23.5152 15.292 23.3179 14.8153 22.9665 14.4637C22.6151 14.1121 22.1385 13.9144 21.6415 13.9141H15.8565C16.3477 14.5091 16.6427 15.2703 16.6427 16.1016V16.5466C16.6402 16.6518 16.6331 16.7569 16.6215 16.8616C16.5371 17.6426 16.3043 18.4005 15.9377 19.0953ZM21.6415 9.53906C21.6415 10.3679 21.3122 11.1627 20.7262 11.7488C20.1401 12.3348 19.3453 12.6641 18.5165 12.6641C17.6877 12.6641 16.8928 12.3348 16.3068 11.7488C15.7207 11.1627 15.3915 10.3679 15.3915 9.53906C15.3915 8.71026 15.7207 7.91541 16.3068 7.32935C16.8928 6.7433 17.6877 6.41406 18.5165 6.41406C19.3453 6.41406 20.1401 6.7433 20.7262 7.32935C21.3122 7.91541 21.6415 8.71026 21.6415 9.53906ZM2.26648 16.4141C2.26648 15.751 2.52987 15.1151 2.99871 14.6463C3.46755 14.1775 4.10344 13.9141 4.76648 13.9141H12.8915C13.5545 13.9141 14.1904 14.1775 14.6592 14.6463C15.1281 15.1151 15.3915 15.751 15.3915 16.4141C15.3915 16.4141 15.3915 21.4141 8.82898 21.4141C2.26648 21.4141 2.26648 16.4141 2.26648 16.4141ZM16.6415 16.5466L16.6377 16.6266L16.6402 16.5466H16.6415Z" fill="#99B2C6"/>
</svg>
