<svg width="28" height="23" viewBox="0 0 28 23" fill="none" xmlns="http://www.w3.org/2000/svg">
<g clip-path="url(#clip0_10_120)">
<path d="M16.5701 4.43457V14.0596H3.07012V4.43457H16.5701ZM3.07012 1.68457C1.5809 1.68457 0.370117 2.91777 0.370117 4.43457V14.0596C0.370117 15.5764 1.5809 16.8096 3.07012 16.8096H8.01871L7.56731 18.1846H4.42012C3.6734 18.1846 3.07012 18.799 3.07012 19.5596C3.07012 20.3201 3.6734 20.9346 4.42012 20.9346H15.2201C15.9668 20.9346 16.5701 20.3201 16.5701 19.5596C16.5701 18.799 15.9668 18.1846 15.2201 18.1846H12.0687L11.6173 16.8096H16.5701C18.0593 16.8096 19.2701 15.5764 19.2701 14.0596V4.43457C19.2701 2.91777 18.0593 1.68457 16.5701 1.68457H3.07012ZM22.6451 1.68457C21.5271 1.68457 20.6201 2.6084 20.6201 3.74707V18.8721C20.6201 20.0107 21.5271 20.9346 22.6451 20.9346H25.3451C26.4631 20.9346 27.3701 20.0107 27.3701 18.8721V3.74707C27.3701 2.6084 26.4631 1.68457 25.3451 1.68457H22.6451ZM23.3201 4.43457H24.6701C25.0414 4.43457 25.3451 4.74395 25.3451 5.12207C25.3451 5.5002 25.0414 5.80957 24.6701 5.80957H23.3201C22.9489 5.80957 22.6451 5.5002 22.6451 5.12207C22.6451 4.74395 22.9489 4.43457 23.3201 4.43457ZM22.6451 7.87207C22.6451 7.49395 22.9489 7.18457 23.3201 7.18457H24.6701C25.0414 7.18457 25.3451 7.49395 25.3451 7.87207C25.3451 8.2502 25.0414 8.55957 24.6701 8.55957H23.3201C22.9489 8.55957 22.6451 8.2502 22.6451 7.87207ZM23.9951 17.4971C23.2484 17.4971 22.6451 16.8826 22.6451 16.1221C22.6451 15.3615 23.2484 14.7471 23.9951 14.7471C24.7418 14.7471 25.3451 15.3615 25.3451 16.1221C25.3451 16.8826 24.7418 17.4971 23.9951 17.4971Z" fill="black"/>
</g>
<defs>
<clipPath id="clip0_10_120">
<rect width="27" height="22" fill="white" transform="translate(0.370117 0.30957)"/>
</clipPath>
</defs>
</svg>
