<svg width="25" height="25" viewBox="0 0 25 25" fill="none" xmlns="http://www.w3.org/2000/svg">
<g clip-path="url(#clip0_10_118)">
<path d="M20.8701 18.5522C21.9701 18.5522 22.8601 17.6522 22.8601 16.5522L22.8701 5.55225C22.8701 4.45225 21.9701 3.55225 20.8701 3.55225H4.87012C3.77012 3.55225 2.87012 4.45225 2.87012 5.55225V16.5522C2.87012 17.6522 3.77012 18.5522 4.87012 18.5522H0.870117C0.870117 19.6522 1.77012 20.5522 2.87012 20.5522H22.8701C23.9701 20.5522 24.8701 19.6522 24.8701 18.5522H20.8701ZM4.87012 5.55225H20.8701V16.5522H4.87012V5.55225ZM12.8701 19.5522C12.3201 19.5522 11.8701 19.1022 11.8701 18.5522C11.8701 18.0022 12.3201 17.5522 12.8701 17.5522C13.4201 17.5522 13.8701 18.0022 13.8701 18.5522C13.8701 19.1022 13.4201 19.5522 12.8701 19.5522Z" fill="black"/>
</g>
<defs>
<clipPath id="clip0_10_118">
<rect width="24" height="24" fill="white" transform="translate(0.870117 0.552246)"/>
</clipPath>
</defs>
</svg>
