<svg width="25" height="25" viewBox="0 0 25 25" fill="none" xmlns="http://www.w3.org/2000/svg">
<g clip-path="url(#clip0_10_115)">
<path opacity="0.3" d="M4.87012 3.79468H19.8701V19.7947H4.87012V3.79468Z" fill="black"/>
<path d="M19.3701 0.794678H5.37012C4.70708 0.794678 4.07119 1.05807 3.60235 1.52691C3.13351 1.99575 2.87012 2.63164 2.87012 3.29468V22.2947C2.87012 22.623 2.93478 22.9481 3.06042 23.2514C3.18606 23.5547 3.3702 23.8303 3.60235 24.0624C3.8345 24.2946 4.11009 24.4787 4.41341 24.6044C4.71672 24.73 5.04181 24.7947 5.37012 24.7947H19.3701C19.6984 24.7947 20.0235 24.73 20.3268 24.6044C20.6301 24.4787 20.9057 24.2946 21.1379 24.0624C21.37 23.8303 21.5542 23.5547 21.6798 23.2514C21.8055 22.9481 21.8701 22.623 21.8701 22.2947V3.29468C21.8701 2.63164 21.6067 1.99575 21.1379 1.52691C20.669 1.05807 20.0332 0.794678 19.3701 0.794678ZM12.3701 23.7947C11.5401 23.7947 10.8701 23.1247 10.8701 22.2947C10.8701 21.4647 11.5401 20.7947 12.3701 20.7947C13.2001 20.7947 13.8701 21.4647 13.8701 22.2947C13.8701 23.1247 13.2001 23.7947 12.3701 23.7947ZM19.8701 19.7947H4.87012V3.79468H19.8701V19.7947Z" fill="black"/>
</g>
<defs>
<clipPath id="clip0_10_115">
<rect width="24" height="24" fill="white" transform="translate(0.870117 0.794678)"/>
</clipPath>
</defs>
</svg>
