<svg width="533" height="347" viewBox="0 0 533 347" fill="none" xmlns="http://www.w3.org/2000/svg">
<path d="M532.633 114.977C531.68 113.895 530.888 112.998 529.978 111.963C529.206 111.774 528.223 111.533 526.863 111.201V113.843C525.467 113.677 525.299 112.518 525.265 111.479C525.203 109.642 524.329 108.484 522.802 107.57C521.78 106.959 520.924 106.075 519.986 105.322C518.562 104.18 517.207 102.928 515.679 101.945C514.408 101.127 512.932 100.626 511.428 99.9311C508.997 101 506.496 99.2405 503.619 99.3718C503.981 100.839 504.278 102.044 504.63 103.47C504.037 103.844 503.363 104.27 502.882 104.573C501.739 103.547 500.881 102.777 499.855 101.854C500.334 101.506 500.709 101.265 501.049 100.981C501.384 100.699 501.685 100.374 502.06 100.013C501.386 99.6858 500.941 99.4686 500.732 99.3675C499.81 100.323 499.026 101.134 498.243 101.945C495.621 101.325 493.098 101.043 490.592 101.142C489.275 101.194 488.316 101.022 487.958 99.8967C487.767 98.5521 487.576 97.2098 487.421 96.1213C483.609 94.2583 483.107 94.2497 479.893 95.1812C478.764 95.5082 477.553 95.5598 476.946 95.6523C475.154 93.9485 473.762 92.6234 472.052 90.9949C472.474 90.8744 472.874 90.7625 473.276 90.6485C472.024 89.1169 470.708 88.5145 468.985 88.934C468.787 89.4051 468.595 89.8569 468.369 90.3882C467.735 90.3 467.169 90.2226 466.498 90.1301C466.67 89.3298 466.81 88.6866 466.945 88.0606C463.86 86.6774 460.801 86.0363 457.809 88.2284C457.925 89.717 458.043 91.2638 458.181 93.0407C457.359 92.8041 456.839 92.6535 456.372 92.5201C455.866 93.116 455.466 93.5893 454.877 94.2841C454.78 93.572 454.731 93.2149 454.67 92.7782C453.859 92.5115 453.065 92.2512 452.287 91.9952C451.394 92.5201 450.527 93.0278 449.604 93.5699C448.815 92.7374 448.107 91.9887 447.388 91.2315C446.244 92.6061 446.947 94.9015 445.037 96.2998C444.045 95.0994 442.903 94.2949 442.23 92.7159C441.457 90.9067 440.758 88.7253 438.51 87.9337C439.536 86.8667 440.567 85.7975 441.737 84.5821C441.053 83.842 440.595 83.3473 440.19 82.9127C439.255 83.1709 438.626 83.3451 438.226 83.4548C437.095 82.7385 436.172 82.1533 435.144 81.5015C434.722 81.7295 434.212 82.0071 433.575 82.3512C433.739 83.1945 433.898 84.0077 434.09 84.9951C433.425 85.3888 432.708 85.8126 432.106 86.1675C430.054 85.6061 428.184 85.0962 426.463 84.6272C426.27 83.7388 426.147 83.1709 426.04 82.6825C424.555 82.3448 423.228 82.0415 421.901 81.7403C421.92 81.8199 421.939 81.8973 421.957 81.9769C420.81 82.1168 419.663 82.2544 418.562 82.39C418.39 81.835 418.293 81.523 418.188 81.1874C416 82.1964 414.913 80.1355 413.238 79.7332V78.0682C414.352 77.2593 415.503 76.5193 416.544 75.6459C418.304 74.1723 419.194 72.1888 419.347 69.9387C419.399 69.1879 419.08 67.7831 418.784 67.7401C416.697 67.4497 416.944 65.0984 415.378 64.2594H411.022C410.787 64.5305 410.523 64.836 410.232 65.1715C409.643 65.0726 409.054 64.9736 408.412 64.8661C408.869 63.9927 409.247 63.2699 409.568 62.6589C408.352 62.0501 407.35 61.5467 406.412 61.0756C406.889 60.1506 407.195 59.5633 407.511 58.9502C406.565 58.4468 405.775 58.0252 404.684 57.4443C403.609 58.4963 402.439 59.6257 401.288 60.7744C399.956 62.106 401.165 64.0873 400.197 65.5803C399.278 65.7115 398.442 65.8298 397.605 65.9481C397.686 66.0643 397.766 66.1805 397.848 66.2966C396.901 67.1958 395.955 68.0951 394.81 69.1814C392.676 68.4264 390.501 66.8947 388.169 68.7985C388.212 68.9706 388.294 69.2998 388.378 69.6396C385.842 71.2208 382.071 70.8981 380.892 74.2755C379.831 74.7294 378.984 75.0909 378.13 75.4566C378.233 76.4397 378.317 77.2571 378.392 77.9692C378.906 78.8447 379.392 79.6687 380.01 80.7185C377.456 81.196 375.337 81.7424 373.184 81.9468C371.616 82.0952 370.316 82.4351 369.693 83.3774C370.022 85.1435 370.28 86.5311 370.467 87.5443C371.594 88.65 372.53 89.5665 373.53 90.5453C372.792 91.2079 372.358 91.5994 371.852 92.0533C370.351 90.7195 368.946 89.4718 367.638 88.3101C366.197 89.0695 364.996 89.6998 363.667 90.4011C363.617 90.8981 363.562 91.4789 363.512 91.9888C364.056 92.4276 364.512 92.7955 364.994 93.1827C364.018 94.3723 363.062 94.2712 361.802 93.2171C361.944 91.679 362.097 90.0333 362.249 88.3747C361.94 89.8526 360.642 90.4915 359.491 91.1433C359.266 91.7951 359.072 92.3545 358.904 92.8385C359.534 94.2432 360.148 95.6157 360.728 96.9129C359.597 98.8727 359.321 100.779 360.176 102.949C361.154 102.734 362.056 102.536 363.056 102.317C363.54 102.659 364.052 103.022 364.794 103.549C363.286 103.978 362.103 104.313 360.771 104.692C361.012 106.157 361.219 107.407 361.445 108.773C360.089 110.668 358.708 112.598 357.207 114.695C355.946 113.462 353.782 114.759 352.917 112.649C354.311 112.258 355.591 111.896 356.97 111.507C357.796 109.366 358.577 107.349 359.296 105.486C358.592 104.629 358.102 104.036 357.687 103.53C357.687 101.719 357.308 99.944 357.777 98.4338C358.455 96.2546 358.063 94.5788 356.768 93.2322C356.94 90.769 359.022 88.8479 357.721 86.2794C356.138 86.2084 354.636 86.1417 353.07 86.0707C352.631 88.0197 352.201 89.9279 351.706 92.1264C351.102 92.647 350.31 93.3311 349.725 93.8345C349.959 95.8954 350.166 97.7153 350.362 99.4406C349.925 99.7891 349.626 100.028 349.226 100.346C350.052 100.725 350.652 100.998 350.949 101.136C351.624 102.482 352.156 103.541 352.82 104.862C352.786 104.931 352.558 105.387 352.354 105.793H351.168C349.434 104.53 347.888 103.296 346.227 102.241C345.252 101.622 344.13 101.181 343.015 100.856C341.075 100.29 339.061 99.9246 337.983 97.782C337.702 98.1563 337.504 98.4188 337.284 98.7092C337.992 99.4664 338.637 100.159 339.283 100.85C339.433 100.718 339.547 100.619 339.661 100.521C340.031 101.6 340.399 102.68 340.799 103.851C340.406 104.221 339.973 104.629 339.526 105.051C338.685 104.67 337.915 104.322 337.138 103.969C336.514 104.528 335.94 105.047 335.393 105.537H332.685C332.711 105.632 332.737 105.724 332.762 105.819C331.913 106.101 331.061 106.383 330.099 106.701C329.964 105.608 329.88 104.913 329.718 103.618C328.899 104.735 328.445 105.356 327.989 105.976C325.351 106.456 323.405 108.28 321.191 109.605C321.114 110.283 321.036 110.963 320.941 111.799C320.034 112.017 319.154 112.23 318.244 112.447C317.644 111.404 317.151 110.55 316.626 109.642C317.534 108.906 318.244 108.334 319.018 107.706C318.575 106.953 318.192 106.303 317.751 105.554C316.994 105.6 316.273 105.64 315.931 105.66C315.781 107.338 315.656 108.758 315.501 110.474C315.684 110.864 316.013 111.558 316.325 112.221C316.071 113.15 315.832 114.024 315.557 115.028C314.589 114.478 313.739 113.996 312.975 113.559C311.571 114.901 310.289 116.128 309.062 117.298C309.407 118.394 309.303 119.319 308.75 120.075C308.03 119.983 307.326 119.892 306.627 119.804C306.236 119.432 305.775 118.995 305.306 118.548C304.964 118.858 304.773 119.03 304.332 119.432C305.025 120.105 305.683 120.746 306.446 121.489C306.399 121.785 306.322 122.265 306.257 122.657C304.02 123.326 303.42 121.037 301.658 120.725C301.557 119.083 301.46 117.52 301.329 115.416C301.051 115.14 300.363 114.452 299.616 113.71C299.844 113.346 300.12 112.903 300.311 112.598C302.237 113.275 303.979 113.847 305.694 114.499C307.701 115.263 309.523 114.678 310.547 112.86C311.56 111.064 311.108 109.128 309.404 107.82C307.391 106.275 305.397 104.709 303.585 103.3C301.462 102.59 299.507 101.936 297.194 101.164C298.005 100.865 298.386 100.725 298.767 100.583C298.775 100.484 298.782 100.385 298.79 100.286H293.651C294.26 99.7891 294.438 99.6428 294.785 99.3589C294.436 99.2642 294.12 99.1803 293.692 99.0641C294.636 98.5177 295.178 98.2015 295.923 97.7691C294.277 96.5171 292.793 95.3855 291.171 94.1486C290.897 94.8477 290.695 95.3662 290.493 95.8825C289.884 95.5082 289.299 95.1467 288.983 94.9531C287.937 95.2048 287.12 95.4006 286.608 95.5254C285.997 96.6806 285.478 97.6594 284.878 98.7909C283.878 98.6403 282.983 98.5048 282.03 98.3607C282.34 98.8705 282.626 99.3416 282.91 99.8128C282.841 99.9418 282.77 100.073 282.701 100.202C281.892 99.8967 281.083 99.5912 280.244 99.275C280.43 99.9375 280.632 100.658 280.808 101.282C280.034 103.078 278.379 101.998 277.308 102.584C276.258 103.722 275.224 104.842 274.017 106.15C274.055 106.602 274.116 107.318 274.176 108.041C273.638 108.121 273.141 108.194 272.821 108.241C271.747 110.01 270.745 111.662 269.738 113.32C270.123 113.682 270.4 113.944 271.009 114.516C267.55 114.843 268.897 117.986 267.759 120.021C267.318 119.41 267.128 119.148 266.913 118.849C266.709 119.195 266.498 119.55 266.287 119.905C266.539 120.088 266.778 120.262 266.703 120.209C265.784 121.553 264.947 122.777 263.844 124.391C263 124.894 261.692 125.677 260.12 126.617C259.907 127.011 259.53 127.701 259.147 128.409C259.352 128.811 259.606 129.306 260.032 130.145C259.076 129.947 258.502 129.829 257.796 129.685C257.829 130.261 257.846 130.582 257.861 130.894C258.928 131.132 259.9 131.352 260.871 131.569C260.855 131.731 260.843 131.892 260.828 132.051C259.853 132.156 258.881 132.264 257.837 132.376C257.949 133.043 258.046 133.628 258.126 134.108C258.734 134.03 259.246 133.966 260.227 133.841C259.399 134.893 258.879 135.555 258.496 136.042C258.567 137.089 258.627 137.971 258.7 139.021C259.563 139.959 260.569 140.406 261.718 140.363C262.753 139.421 263.766 138.496 264.904 137.459C265.014 136.887 265.164 136.106 265.313 135.325C266.094 138.754 267.944 141.6 269.067 144.698V147.688C269.658 147.77 269.992 147.815 270.635 147.903C270.437 145.886 272.173 146.064 273.027 145.638C273.763 144.591 274.326 143.786 274.858 143.029C274.161 141.514 274.378 140.226 275.46 138.961C276.448 137.806 277.278 136.515 278.212 135.237C277.347 134.338 276.598 133.557 275.555 132.473C275.084 128.934 275.869 126.352 278.812 123.866C279.892 122.951 280.871 121.917 281.832 120.996C280.739 118.799 282.239 117.58 282.901 116.373C284.607 115.885 286.21 115.523 287.589 116.947C287.509 117.554 287.423 118.201 287.322 118.967C285.326 121.555 283.23 124.272 281.393 126.654C281.703 128.527 282.256 129.743 281.989 131.307C281.787 132.494 282.718 133.877 283.157 135.17C283.17 135.211 283.321 135.205 283.615 135.261C283.659 134.74 283.697 134.284 283.755 133.606C284.715 134.747 285.562 134.951 286.894 134.372C288.578 133.641 290.48 133.406 291.984 133.034C292.963 133.772 293.571 134.23 294.079 134.613C293.089 135.377 292.121 136.123 290.936 137.035C288.688 135.968 286.434 136.31 284.596 138.296C284.36 138.004 284.22 137.829 283.99 137.543C283.753 137.999 283.572 138.348 283.338 138.802C284.125 138.918 284.715 139.006 285.04 139.053C285.517 139.66 285.846 140.077 286.332 140.693C286.01 141.51 287.298 143.508 284.846 143.737C284.263 143.018 283.734 142.362 283.215 141.723C280.367 143.633 281.466 146.324 281.802 148.34C280.402 149.261 279.414 149.908 278.326 150.625C277.706 150.24 277.067 149.842 276.278 149.349C274.649 150.3 273.027 151.251 271.437 152.18C270.616 151.705 269.626 151.135 268.69 150.595C267.922 150.962 267.234 151.294 266.664 151.567C265.881 151.025 265.227 150.573 264.577 150.124C264.502 146.763 264.51 146.729 265.84 145.032C264.612 143.924 263.382 143.928 262.148 145.042C262.357 146.202 262.561 147.361 262.809 148.753C262.688 148.932 262.411 149.343 262.318 149.48C262.807 150.336 263.2 151.029 263.65 151.817C261.877 152.32 260.283 152.649 258.799 153.249C258.052 153.55 257.136 154.239 256.934 154.938C256.278 157.192 254.516 158.16 252.608 159.206C252.726 161.149 250.887 161.538 249.822 162.629C249.022 162.568 248.264 162.51 247.406 162.444C247.535 162.915 247.66 163.366 247.804 163.894C247.402 164.19 247.004 164.483 246.763 164.662C245.537 164.431 244.536 164.246 243.506 164.053C243.456 164.627 243.42 165.023 243.385 165.436C249.004 168.209 249.374 171.21 247.415 175.811C245.586 175.631 243.635 175.411 241.679 175.252C239.883 175.104 238.035 174.785 236.379 176.39C236.631 177.605 237.153 178.922 237.104 180.217C237.05 181.609 236.461 182.981 236.166 184.128C236.538 185.393 236.859 186.49 237.198 187.645H239.61C240.212 188.179 240.789 188.691 241.129 188.992C243.028 188.594 244.683 188.245 246.857 187.792C247.589 187.06 248.701 185.948 249.525 185.124C248.91 180.712 252.429 180.015 254.593 178.341C254.182 176.902 254.213 175.723 255.753 175.028C256.785 175.372 257.829 175.721 258.836 176.054C260.245 175.196 261.628 174.351 263.101 173.451C263.697 173.692 264.323 173.944 264.751 174.118C266.317 176.648 267.914 178.728 270.586 179.978C273.64 181.407 274.314 183.13 273.767 185.963C274.21 185.264 274.653 184.565 275.019 183.99C274.798 183.222 274.641 182.682 274.499 182.196C275.183 181.785 275.71 181.467 276.338 181.088C274.544 179.948 272.887 178.894 271.007 177.696C270.74 177.065 270.377 176.207 270.138 175.641C269.323 174.873 268.712 174.297 268.137 173.755C268.189 172.742 268.232 171.887 268.273 171.076C268.974 170.9 269.531 170.76 270.16 170.601C270.274 171.104 270.385 171.604 270.48 172.029C270.93 171.769 271.257 171.58 271.732 171.305C272.339 172.621 272.864 173.763 273.391 174.906C273.505 174.794 273.619 174.682 273.733 174.572C275.609 176.014 277.484 177.457 279.335 178.879C279.104 179.808 278.947 180.452 278.812 180.994C280.174 183.063 280.952 185.756 283.977 185.326C283.816 184.094 283.646 182.79 283.452 181.299C284.177 181.531 284.648 181.684 285.19 181.856C285.605 181.342 286.023 180.824 286.567 180.146C287.754 180.432 288.963 180.725 290.392 181.069C289.951 181.792 289.652 182.282 289.549 182.45C289.822 183.517 290.011 184.313 290.231 185.102C290.459 185.92 290.715 186.731 290.938 187.477C292.73 188.359 294.445 189.209 296.329 188.082C297.248 188.572 298.074 189.013 298.988 189.502C299.933 189.087 300.929 188.648 301.907 188.217C302.363 188.495 302.796 188.755 303.187 188.994C303.31 190.16 303.426 191.253 303.577 192.679C301.886 194.14 302.544 197.124 300.44 198.61C298.893 198.397 297.461 198.201 295.733 197.965C295.094 198.274 294.187 198.713 293.087 199.245C289.589 198.13 285.937 196.969 281.753 195.637C281.441 195.792 280.621 196.203 279.709 196.661C280.124 198.386 280.189 199.881 278.549 200.124C276.975 199.546 275.759 199.191 274.628 198.653C273.911 198.313 273.244 197.778 272.696 197.199C271.76 196.211 270.743 195.547 269.325 195.553C267.389 195.562 265.902 194.602 264.562 193.219C265.106 192.589 265.605 192.012 266.012 191.539C265.864 190.422 265.737 189.463 265.58 188.284C265.311 188.153 264.781 187.895 264.702 187.858C263.202 188.02 262.196 188.207 261.187 188.217C259.165 188.239 257.063 188.093 255.142 188.398C252.358 188.841 249.71 190.123 247.004 191.048C247.036 191.143 247.07 191.24 247.103 191.335H242.921C242.348 190.883 241.793 190.446 241.094 189.893C240.851 193.004 239.012 194.54 236.611 195.381C236.2 197.212 234.327 198.578 235.863 200.503C234.062 201.899 233.15 204.175 230.947 204.124C229.889 205.537 229.017 206.701 228.148 207.865C228.198 207.884 228.245 207.905 228.295 207.925C226.901 210.463 225.509 213.002 223.94 215.859C225.631 215.366 225.78 216.063 225.825 216.949C225.883 218.076 225.997 219.199 226.12 220.714C225.698 221.949 225.134 223.603 224.551 225.315C224.767 225.778 225.311 226.38 225.214 226.851C224.926 228.245 225.53 228.88 226.578 229.7C227.912 230.743 229.129 232.096 229.972 233.561C230.762 234.934 231.444 236.186 232.909 236.992C234.023 237.605 234.983 238.524 235.942 239.384C236.99 240.324 238.347 240.987 239.496 240.376C242.019 239.032 244.474 239.339 247.051 240.047C247.365 239.886 247.673 239.744 247.965 239.574C250.17 238.298 252.597 237.851 255.095 237.661C257.325 237.491 258.207 238.963 258.706 240.742C260.974 240.389 263.024 240.269 264.807 242.323C264.536 243.39 263.846 244.605 264.057 245.634C264.336 246.983 263.878 247.828 262.914 248.901C264.659 250.954 266.354 252.946 268.198 255.116C268.974 257.896 269.818 260.907 270.753 264.259C270.256 265.117 269.688 266.234 268.998 267.269C267.333 269.764 267.464 273.886 268.858 276.577C269.966 278.715 271.42 280.707 271.489 283.416C271.547 285.655 272.272 287.985 273.18 290.065C274.26 292.537 275.85 294.785 277.125 296.968C276.843 301.363 277.282 300.72 279.091 302.045C281.611 301.751 283.893 301.396 286.186 301.245C287.961 301.129 289.583 300.703 290.966 299.608C293.853 297.326 295.742 294.178 297.962 291.324C298.304 290.885 298.414 290.22 298.5 289.641C298.655 288.579 298.711 287.503 298.801 286.524C300.206 285.795 301.46 285.143 302.893 284.399C302.473 281.946 302.097 279.739 301.699 277.414C304.041 275.42 306.162 273.068 309.129 272.156C309.65 271.115 310.073 270.27 310.263 269.891C310.14 267.297 310.037 265.154 309.927 262.828C306.915 261.493 309.852 257.838 307.445 256.302C308.946 251.661 311.874 248.142 315.469 245.528C318.911 243.026 321.8 240.279 323.566 236.474C324.54 234.374 326.403 232.453 325.607 229.934C322.213 230.584 318.881 231.223 315.886 231.795C314.154 230.685 314.277 229.327 314.288 228.015C315.52 228.146 316.736 228.284 317.788 227.333C318.074 227.075 318.562 227.043 318.956 226.899C321.578 225.948 324.201 224.997 326.827 224.042C327.152 223.504 327.46 222.994 327.843 222.357C329.103 222.058 330.426 221.746 331.424 221.51C332.93 220.282 334.23 219.221 335.527 218.16C335.852 217.218 336.441 216.485 337.013 215.736C337.628 214.929 338.227 214.11 339.046 213.006C337.127 211.788 335.305 210.635 333.649 209.586C333.597 208.637 333.565 208.032 333.539 207.551C332.459 208.45 331.448 209.913 330.213 210.138C329.101 210.341 327.531 211.728 326.548 210.212C326.408 209.099 326.298 208.235 326.115 206.798C325.851 207.916 325.726 208.448 325.601 208.979C325.461 209.007 325.321 209.035 325.181 209.061C324.844 208.198 324.508 207.335 324.065 206.204C322.587 204.788 321.52 202.816 320.918 200.337H324.751C325.403 201.555 326.008 202.684 326.429 203.474C327.778 204.412 328.83 205.141 330.215 206.105C331.14 205.782 332.309 205.373 333.801 204.851C334.361 205.561 335.01 206.385 335.798 207.387C339.928 208.925 344.502 208.508 348.867 207.998C350.497 209.781 351.923 211.343 353.442 213.004C353.416 213.081 353.32 213.385 353.216 213.701C353.866 214.394 354.52 215.091 355.303 215.927C356.146 215.265 356.897 214.675 357.981 213.826C358.42 217.683 358.734 221.398 360.311 224.868C361.884 228.327 363.131 231.933 365.102 235.435C366.405 233.894 367.488 232.619 368.656 231.24C368.897 228.682 369.148 226.032 369.383 223.536C373.367 222.116 375.174 217.958 378.926 216.482C379.068 215.736 379.195 215.076 379.311 214.477C384.172 212.993 385.543 212.797 386.92 213.426C386.995 214.14 387.074 214.908 387.128 215.433C387.931 216.883 390.116 216.487 390.204 218.472C390.271 219.944 390.512 221.409 390.71 223.175C392.113 223.67 393.201 222.514 394.412 221.166C395.264 223.435 396.394 225.436 396.708 227.559C397.041 229.801 396.596 232.156 396.484 234.63C399.803 236.5 399.117 240.531 401.023 243.293C402.139 243.951 403.269 244.614 404.622 245.41C404.179 243.313 403.815 241.598 403.316 239.24C402.535 238.733 401.077 238.083 400.042 237.02C399.029 235.981 398.448 234.523 397.441 232.855C397.57 230.977 398.205 228.826 399.612 226.417C400.01 227.404 400.19 227.856 400.419 228.42C403.305 227.91 403.321 231.745 405.782 231.797C405.87 232.651 405.939 233.316 406.042 234.303C408.38 232.571 410.531 230.977 412.779 229.312C412.493 227.555 412.235 225.963 412.042 224.78C410.097 222.519 408.421 220.568 406.584 218.429C407.896 216.979 409.071 215.678 410.123 214.516H412.992C413.154 214.94 413.328 215.396 413.58 216.059C414.113 215.402 414.52 214.901 414.606 214.794C417.618 213.744 420.169 212.853 423.374 211.737C427.1 210.597 427.832 205.883 430.884 202.639C430.929 202.379 431.061 201.643 431.198 200.86C431.024 200.695 430.856 200.497 430.652 200.35C430.404 200.174 430.125 200.045 429.434 199.656C430.237 199.464 430.544 199.391 430.987 199.286C430.067 196.695 429.955 193.748 427.238 191.926C427.896 190.769 428.232 189.465 429.927 189.11C430.82 188.923 431.577 188.088 432.545 187.445C431.323 187.142 430.415 186.918 429.725 186.746C428.684 187.064 427.812 187.331 426.694 187.673C426.853 187.034 426.932 186.718 427.012 186.393C426.485 186.137 425.915 185.862 424.921 185.378C426.84 183.564 428.544 181.955 430.415 180.187C430.953 180.456 431.521 180.74 432.089 181.024C431.644 182.011 431.284 182.805 430.817 183.838C432.562 183.192 433.935 182.687 435.389 182.149C435.481 182.839 435.52 183.123 435.559 183.418C435.976 183.319 436.286 183.246 436.652 183.158C436.486 184.023 436.331 184.836 436.172 185.668C436.929 186.118 437.581 186.507 438.177 186.86V192.128C440.046 192.576 441.118 191.36 442.393 190.65V187.477C441.485 186.185 440.481 184.756 439.388 183.203C440.498 181.572 443.521 181.174 443.129 178.599C444.291 177.537 445.239 176.668 446.225 175.766C448.488 177.115 449.658 176.788 451.39 174.478C453.55 171.599 455.69 168.727 457.521 165.615C458.205 164.451 458.65 163.386 458.719 162.031C458.809 160.236 458.622 158.307 460.089 156.853C461.554 156.485 461.748 157.7 461.769 158.518C461.81 160.056 461.485 161.602 461.389 163.149C461.35 163.777 461.505 164.418 461.571 165.053C462.339 163.784 462.49 162.196 464.157 162.28C463.594 158.952 463.052 155.77 462.531 152.703C462.346 152.83 461.941 153.114 461.531 153.398C461.386 154.009 461.24 154.624 461.034 155.493C460.468 155.041 460.158 154.794 459.831 154.534C460.126 154.093 460.367 153.735 460.554 153.456C459.506 152.595 458.472 151.746 457.501 150.95C456.563 151.685 455.823 152.266 454.722 153.131C454.571 150.586 453.16 149.945 451.278 149.824C451.441 149.259 451.437 148.755 451.687 148.495C453.978 146.099 456.32 143.754 458.622 141.366C458.902 141.078 458.964 140.589 459.214 140.262C460.717 138.3 462.189 136.263 465.166 136.87C465.895 137.018 466.631 137.124 467.332 137.242C467.571 136.969 467.769 136.745 467.864 136.635C468.847 136.814 469.675 136.967 470.589 137.132C471.11 136.719 471.712 136.244 472.371 135.721C473.537 136.003 474.664 136.276 475.757 136.541C475.656 137.113 475.569 137.612 475.458 138.247C477.183 137.868 478.753 137.522 480.474 137.145C480.07 136.767 479.674 136.394 479.283 136.029C481.333 133.071 482.632 129.261 487.064 129.037C487.597 129.482 488.057 129.868 488.272 130.046V132.877C489.802 131.668 491.103 130.642 492.611 129.45C492.68 128.856 492.786 127.936 492.902 126.918C493.629 126.998 494.199 127.062 494.888 127.138C494.675 127.77 494.393 128.246 494.376 128.727C494.305 130.773 493.829 132.494 491.779 133.533C491.08 133.888 490.688 134.83 490.123 135.472C488.202 137.653 486.263 139.819 484.334 141.992C483.637 142.601 483.054 143.356 482.658 144.201C482.266 145.034 481.787 145.972 481.832 146.839C481.967 149.493 482.318 152.139 482.626 154.785C482.759 155.928 482.989 157.059 483.202 158.369C485.183 157.124 486.005 155.547 486.265 153.755C486.881 153.408 487.393 153.12 487.907 152.83C487.965 152.096 488.019 151.414 488.075 150.687C489.053 150.27 489.968 149.883 491.043 149.424C489.879 147.271 491.033 146.077 492.42 145.436V141.461C491.841 141.106 491.207 140.716 490.57 140.327C491.742 138.533 492.209 137.251 492.865 136.074C493.44 135.041 494.305 134.342 495.576 135.063C496.221 134.144 496.905 133.628 497.617 134.26C499.138 133.789 500.476 133.376 501.58 133.034C502.432 133.753 502.935 134.179 503.331 134.512C506.201 131.393 509.406 128.874 513.205 127.185C513.805 126.918 514.668 127.295 515.408 127.282C516.004 127.271 516.596 127.125 517.305 127.021C516.402 124.754 515.645 122.85 514.879 120.929C515.63 120.389 516.449 119.802 517.426 119.103V114.542C518.11 114.908 518.585 115.162 519.05 115.409C519.205 114.938 519.293 114.669 519.549 113.882C519.941 115.22 520.169 115.996 520.448 116.947C521.371 116.818 522.163 116.709 523.157 116.569C523.63 117.423 524.116 118.3 524.611 119.193C525.863 119.884 527.134 120.587 528.959 121.594C528.621 120.495 528.483 120.054 528.305 119.473C529.707 118.006 531.153 116.496 532.618 114.966L532.633 114.977Z" fill="#D2D2D2"/>
<path d="M362.258 88.3751C362.307 88.1428 362.333 87.8932 362.329 87.6157C362.305 87.8696 362.281 88.1213 362.258 88.3751Z" fill="#D2D2D2"/>
<path d="M125.167 230.078C124.861 228.338 125.556 226.423 125.814 224.595C124.713 224.078 123.792 223.648 123.33 223.431C121.069 223.564 119.3 223.667 117.448 223.777C118.47 220.671 119.382 217.907 120.309 215.084C119.83 214.854 119.298 214.598 118.902 214.406C117.747 214.723 116.773 214.987 115.867 215.235C115.368 216.577 114.905 217.827 114.531 218.836C112.552 219.247 110.969 219.576 109.387 219.905C108.518 219.492 107.606 219.06 107.12 218.827C104.024 215.08 103.568 211.298 105.102 207.079C104.547 205.731 104.887 204.392 106.019 203.343C107.015 202.622 108.013 201.901 109.48 200.843C111.259 200.938 113.711 201.065 116.003 201.185C116.497 200.587 116.872 200.133 117.347 199.557C119.449 199.819 121.561 200.084 123.674 200.348C123.661 200.467 123.648 200.585 123.637 200.703C124.104 200.544 124.571 200.385 124.767 200.316C125.623 200.998 126.3 201.536 126.858 201.979C126.851 204.728 127.714 206.849 130.222 208.807C130.241 207.247 130.435 206.079 130.222 204.988C129.966 203.665 129.508 202.336 128.882 201.142C128.017 199.492 128.363 198.059 129.501 196.88C130.969 195.362 132.636 194.034 134.249 192.664C134.383 192.55 134.63 192.572 134.69 192.595C135.802 191.524 136.667 190.693 137.489 189.904C137.257 188.908 136.996 187.787 136.745 186.712C137.569 185.75 138.666 184.954 137.562 183.541C139.655 183.564 139.438 182.037 139.621 180.692C139.668 180.342 140.215 180.06 140.63 179.653C140.787 180.314 140.886 180.731 140.961 181.045C141.701 180.871 142.29 180.733 143.056 180.555C142.977 180.228 142.884 179.853 142.815 179.569C143.433 179.195 144.024 178.836 144.422 178.593H146.12C145.294 178.105 144.715 177.76 144.106 177.401C144.179 176.992 144.151 176.607 144.311 176.33C146.01 173.35 149.118 172.565 152.025 171.502C152.242 171.423 152.672 171.93 153.105 172.236C152.496 172.742 151.993 173.159 151.401 173.651C151.689 174.153 151.93 174.572 152.038 174.759C154.127 173.675 156.099 172.649 158.177 171.569C158.261 171.178 158.38 170.635 158.444 170.328C156.846 170.106 155.336 169.9 153.436 169.637C153.948 169.001 154.161 168.734 154.417 168.415C153.944 168.08 153.475 167.749 152.885 167.331C153.257 166.126 153.612 164.978 154.034 163.612C150.82 162.368 148.693 164.203 146.731 165.984C145.883 165.642 145.104 165.354 144.356 164.999C144.244 164.945 144.28 164.575 144.214 164.109C145.005 164.322 145.623 164.487 146.109 164.618C147.746 163.25 149.271 161.977 151.098 160.452H160.681C161.243 159.759 161.776 159.103 162.493 158.221C163.654 157.803 165.072 157.294 166.591 156.747V153.301C166.04 152.957 165.395 152.554 165.1 152.372C164.39 151.298 163.977 149.923 163.291 149.771C160.681 149.19 159.324 147.256 157.715 145.384C157.732 144.313 158.216 143.102 157.261 142.123C158.199 140.908 154.95 140.667 156.51 139.55C155.445 137.724 154.475 136.063 153.322 134.088C152.892 135.467 152.591 136.433 152.289 137.399C152.201 137.343 152.113 137.285 152.025 137.229C151.549 137.971 151.072 138.713 150.523 139.57C150.213 139.703 149.744 139.903 149.43 140.039C148.307 139.331 147.314 138.705 146.386 138.12C146.227 136.313 146.07 134.506 145.95 133.148C143.889 131.148 142.093 129.405 140.264 127.63C138.171 129.332 136.024 126.854 133.8 127.785C134.017 130.24 134.228 132.651 134.441 135.061C134.593 135.071 134.744 135.082 134.897 135.091C134.359 136.304 133.819 137.517 133.199 138.913C136.121 140.236 135.443 143.371 136.609 145.658C135.021 147.133 133.425 148.618 131.683 150.238C131.975 151.38 132.238 152.81 132.711 154.168C133.391 156.123 132.892 157.494 130.79 158.46C129.856 157.326 128.886 156.145 127.744 154.757C128.566 154.508 129.005 154.376 129.779 154.142C128.815 153.738 128.217 153.488 127.434 153.161C127.361 151.679 127.288 150.199 127.208 148.609C126.806 148.566 126.38 148.448 125.967 148.484C123.16 148.74 121.017 147.288 119.094 145.595C117.125 143.861 115.08 142.831 112.462 143.638C111.898 141.914 111.375 140.312 110.917 138.911C109.994 138.552 109.37 138.309 108.731 138.059C107.793 133.133 110.508 129.631 112.81 126.066C113.55 125.929 114.129 125.821 114.559 125.741C115.127 124.371 115.626 123.162 116.071 122.087C116.519 122.19 116.9 122.414 117.141 122.312C119.165 121.465 119.92 119.645 120.303 117.705C120.471 116.859 120.6 116.442 121.634 116.674C121.452 118.797 122.471 121.05 120.705 123.05C121.396 123.207 122.045 123.354 122.512 123.459C122.785 124.059 122.972 124.468 123.276 125.135C124.259 123.842 125.04 122.814 125.905 121.678C126.959 122.416 128.017 123.156 129.155 123.952C129.618 123.343 129.942 122.917 130.332 122.407C129.452 122.317 128.779 122.246 128.086 122.175C127.938 121.411 127.811 120.757 127.729 120.338C126.107 119.043 124.693 117.915 123.502 116.967C124.345 115.691 125.068 114.598 125.984 113.211C128.912 111.657 128.994 111.358 127.535 107.893C127.253 107.224 127.26 106.432 127.135 105.703C127.682 105.47 128.213 105.245 128.551 105.1C129.4 102.902 127.234 102.394 126.615 100.972C125.451 100.749 124.235 100.514 122.456 100.17C122.962 101.643 123.299 102.622 123.478 103.143C122.985 104.397 122.514 105.344 122.243 106.346C121.807 107.962 121.684 109.702 120.06 110.885C119.487 110.104 118.995 109.433 118.425 108.654C118.625 107.376 118.831 106.045 119.019 104.851C118.304 104.038 117.736 103.392 117.222 102.805C116.594 103.793 115.919 104.855 115.108 106.129C114.895 104.483 114.723 103.158 114.561 101.906C113.748 101.291 113.014 100.733 112.259 100.163C112.505 99.4126 112.703 98.7995 112.782 98.5564C112.358 96.8828 112.092 95.4651 111.633 94.1098C111.098 92.5287 110.007 91.3993 108.346 90.9432C108.153 90.8895 107.89 91.0852 107.55 91.2035C107.714 91.8984 107.864 92.5416 108.026 93.2257C107.546 93.415 107.088 93.5957 106.447 93.8495C106.617 96.0954 106.784 98.3327 106.92 100.129C108.054 100.607 108.796 100.921 109.611 101.263V104.963C110.057 104.565 110.274 104.367 110.73 103.958C110.044 106.578 108.744 108.16 107.662 107.951C107.068 107.501 106.475 107.054 105.741 106.499C106.337 105.688 106.853 104.982 107.277 104.403C107.019 103.519 106.795 102.758 106.595 102.074C105.752 101.359 104.934 100.667 104.351 100.172C103.495 101.403 102.714 102.525 101.942 103.638C102.579 104.012 103.229 104.395 103.926 104.806C103.616 105.541 103.338 106.204 103.048 106.892C103.919 107.271 104.678 107.604 105.511 107.966C105.408 108.4 105.315 108.777 105.251 109.046C102.942 108.4 100.808 108.476 98.6658 108.949C97.3815 108.493 96.0111 108.187 94.8344 107.538C93.7394 106.933 92.6015 106.12 92.8639 104.528C92.5089 104.356 92.1518 104.182 91.7259 103.973C90.5513 104.619 89.3617 105.27 87.9333 106.056C88.7723 106.707 89.2348 107.067 89.5144 107.284V110.408C88.8949 110.109 87.8838 109.855 87.8773 109.579C87.8386 107.925 86.6146 108.123 85.739 108.228C84.3149 108.4 82.9252 108.869 81.4473 109.231C80.3567 108.816 79.2359 108.39 77.4891 107.725C78.7497 106.97 79.4015 106.578 80.1674 106.118C79.5973 105.374 79.0337 104.638 78.455 103.883C75.5143 104.791 73.4405 102.618 70.5729 102.115C70.2222 101.667 69.6844 100.981 69.2327 100.402H67.1073C66.2489 101.024 66.591 102.747 64.9216 102.297C64.7517 101.351 64.5774 100.391 64.2891 98.7802C63.818 100.202 63.5427 101.033 63.2415 101.94C60.3696 101.583 61.4517 98.322 59.5866 97.3152C59.2617 98.1004 58.939 98.8834 58.6142 99.6643C58.1539 99.8751 57.6913 100.086 57.117 100.351C56.3382 98.8813 55.411 98.9566 54.23 99.9375C53.2404 100.761 52.1412 101.712 50.9558 101.96C50.0158 102.155 48.895 101.514 48.0151 102.599C48.1442 103.276 48.2797 103.982 48.5163 105.219C46.1263 103.926 44.158 102.861 42.1638 101.781C40.4363 101.063 38.6487 100.318 36.861 99.5761C36.889 99.447 36.9169 99.318 36.9449 99.1889C36.0263 99.333 35.1077 99.475 34.0945 99.6342C33.6234 99.3868 33.0576 98.9673 32.423 98.7802C30.7214 98.2832 28.9918 97.8874 26.8277 97.3388C26.2662 97.4313 25.1841 97.6077 24.0806 97.7884C23.4266 97.0118 22.8823 96.3643 22.2133 95.5684C21.5141 95.6996 20.7031 95.8545 19.8168 96.0201C19.6662 95.6114 19.5157 95.1984 19.3737 94.8133C18.7821 95.1102 18.3024 95.3489 17.6527 95.6759C17.7947 95.0069 17.8721 94.6391 17.9431 94.2992C17.3752 94.0195 16.9794 93.8259 16.5384 93.6086C16.121 94.2992 15.8156 94.8047 15.4326 95.4393C14.4839 95.6458 13.4729 95.8696 12.3994 96.104C12.3392 96.4676 12.2596 96.9688 12.1843 97.4335C10.8978 97.8035 9.6781 98.152 8.43899 98.5091C7.65164 100.31 6.90086 102.024 6.19956 103.629C4.81632 104.036 3.60733 104.393 2.37898 104.754C2.04124 108.097 6.75458 107.845 6.2684 110.827C7.12889 111.266 7.73984 111.578 8.41748 111.922C8.56592 112.322 8.74016 112.791 8.90366 113.232C9.71037 113.322 10.4999 112.165 11.4787 113.699C10.4956 113.91 9.71252 114.078 8.82621 114.267C8.57667 114.547 8.1959 114.977 7.90979 115.302C7.17192 115.082 6.61475 114.917 6.16945 114.783C5.93711 114.213 5.76286 113.783 5.48536 113.101C4.46567 113.71 3.67618 114.183 2.90819 114.641C2.79632 114.482 2.70597 114.349 2.52312 114.086C2.36392 114.68 2.27788 115.007 2.12084 115.596C1.85839 115.259 1.7078 115.063 1.6153 114.942C1.10331 115.493 0.539685 116.1 0.135254 116.534C0.505265 116.898 0.896789 117.285 1.32058 117.702C1.47332 117.694 1.83903 117.677 2.2327 117.655C1.53785 119.555 2.7533 120.06 3.90636 120.477C4.99273 120.335 6.05758 120.424 7.10093 120.31C8.07543 120.204 9.02843 119.884 10.0029 119.656C10.2245 120.88 10.4052 121.88 10.6139 123.046C10.4633 123.332 10.2288 123.782 10.0976 124.033C7.97863 124.887 6.03822 125.671 4.05049 126.473C4.37102 126.83 4.58614 127.067 4.51515 126.989C3.8999 128.121 3.36425 129.106 2.90173 129.958C3.20506 130.771 3.43524 131.386 3.50838 131.582C4.70231 131.911 5.61013 132.163 6.79115 132.488C5.97799 133.34 5.36704 133.981 4.7819 134.594C6.0081 135.715 7.23215 135.456 8.67993 134.17C8.93808 135.874 9.15105 137.281 9.36617 138.703C9.87816 138.427 10.3966 138.148 11.0592 137.791C11.8121 138.255 12.565 138.72 13.204 139.116H15.353V142.119C13.9806 143.375 12.4489 144.78 10.7946 146.294C9.5017 146.243 8.44114 146.839 7.85171 148.37C9.8502 147.548 11.7175 146.778 13.1889 146.174C16.0737 143.534 18.6896 141.14 21.3528 138.703C20.7526 138.141 20.4106 137.821 19.862 137.309C20.8172 136.532 21.6475 135.859 22.2843 135.34C22.7296 134.372 23.1362 133.495 23.5514 132.591C24.1516 132.748 24.4678 132.832 24.9497 132.959C24.6506 133.92 24.3839 134.774 24.1193 135.624C24.3258 135.786 24.5237 135.94 24.7195 136.095C24.4958 136.476 24.272 136.857 24.0504 137.235C25.4315 136.627 26.4491 135.368 27.7269 134.998C29.4522 134.499 29.2779 133.591 29.0284 132.376C29.0004 132.234 29.1316 132.062 29.1424 132.034C29.9125 131.943 30.6138 131.86 31.3754 131.769C33.2943 134.2 35.8822 135.185 38.9498 135.013C39.9136 135.308 40.8773 135.603 42.0326 135.958C42.9855 136.904 44.1666 138.074 45.5907 139.486C46.0317 139.406 46.8405 139.262 47.7182 139.103C47.4795 139.798 47.2708 140.402 47.0105 141.159C47.8774 141.42 48.6519 141.652 49.5834 141.932C49.3682 142.938 49.1768 143.842 48.9767 144.778C49.2004 145.21 49.4371 145.666 49.6608 146.096C50.2072 145.92 50.7493 145.744 51.3043 145.563C51.0613 145.178 50.8332 144.819 50.6203 144.483C51.2075 144.089 51.7776 143.709 52.3692 143.313C52.7349 143.988 53.1006 144.659 53.4556 145.315C54.387 145.939 55.3013 146.552 56.1704 147.135C56.3067 149.727 56.5999 151.322 57.0503 151.922C57.9645 152.075 58.8573 152.225 59.8318 152.389C58.9993 154.295 59.0703 154.546 60.589 155.422C60.8407 155.566 61.1806 155.555 61.8238 155.687C61.0214 156.25 60.5503 156.581 60.3804 156.7C59.8963 158.053 59.5242 159.092 59.2789 159.77C61.0042 161.344 62.7209 162.913 64.5322 164.567C63.9105 166.469 65.9843 168.013 65.6294 170.089C65.2443 172.352 65.0442 174.645 64.7667 176.896C65.1045 179.434 65.4401 181.968 65.6165 183.295C67.6902 186.996 69.181 189.654 70.4352 191.89C72.154 192.888 73.49 193.628 74.7828 194.441C75.127 194.658 75.4583 195.056 75.5788 195.439C76.5167 198.444 78.0011 201.11 80.4104 203.224C80.0598 203.857 79.7672 204.384 79.5586 204.763C80.8041 205.597 81.8475 206.296 82.7295 206.888C83.0034 208.388 83.7728 209.499 85.0377 210.22C84.8355 209.45 84.8119 208.848 84.5365 208.405C83.0543 206.008 81.5721 203.607 79.9565 201.301C79.1864 200.204 78.7863 199.12 78.7798 197.821C80.7697 197.704 81.5312 197.904 81.841 199.126C82.5832 202.052 84.7172 203.872 86.7071 205.853C87.118 206.262 87.318 206.884 87.6622 207.492C89.2305 209.166 91.0052 210.857 92.5046 212.763C93.0898 213.507 93.4964 214.888 93.2103 215.712C92.6638 217.285 93.5781 217.722 94.5225 218.302C98.2248 220.576 102.131 222.398 106.083 223.478C107.52 223.164 108.742 222.9 110.018 222.622C112.399 226.419 116.237 226.892 119.707 227.578C120.628 228.633 121.413 229.534 122.185 230.418C121.613 231.763 122.357 232.221 123.422 232.688C124.328 233.086 125.098 233.789 126.171 234.525C127.296 235.009 128.723 235.622 129.99 236.164C130.323 235.299 130.624 234.523 130.921 233.75C129.884 233.961 128.847 234.172 127.826 234.381C126.832 232.858 125.427 231.569 125.165 230.08L125.167 230.078Z" fill="#D2D2D2"/>
<path d="M134.691 192.593C134.691 192.593 134.678 192.606 134.669 192.615C134.713 192.613 134.713 192.602 134.691 192.593Z" fill="#D2D2D2"/>
<path d="M130.924 233.749C130.962 233.74 130.999 233.734 131.036 233.725C131.068 233.703 131.096 233.69 131.127 233.673C131.07 233.665 131.016 233.656 130.96 233.649C130.947 233.682 130.934 233.716 130.921 233.749H130.924Z" fill="#D2D2D2"/>
<path d="M210.631 98.6512C209.051 98.1865 207.836 97.8294 206.106 97.3217C207.141 96.9861 207.681 96.8119 208.185 96.6484C208.219 95.9923 208.249 95.3921 208.258 95.2092C210.073 94.5531 211.508 94.0347 213.115 93.4517C213.685 94.6198 214.27 95.8159 214.847 96.9947H217.368C217.943 94.1809 216.462 92.0448 215.348 89.9323C215.641 89.0115 215.895 88.2134 216.209 87.226C215.651 86.8366 215.056 86.4236 214.518 86.0472C213.905 86.5721 213.502 86.9141 212.851 87.4713C212.433 86.3827 212.126 85.5739 211.721 84.5155C212.685 84.6661 213.365 84.7736 214.079 84.8855C213.894 84.4423 213.761 84.1261 213.586 83.7131C213.081 83.627 212.498 83.5281 212.278 83.4915C211.979 82.3191 211.741 81.3854 211.502 80.4561C212.575 80.8842 213.638 81.308 214.75 81.7533C214.83 82.4481 214.916 83.1839 215.023 84.1132C216.587 83.5582 217.949 83.0763 219.367 82.5729C218.902 81.8006 219.829 80.6605 218.439 80.4884C218.02 80.938 217.6 81.3876 217.181 81.8393C217.248 79.0083 220.416 79.3267 221.531 77.2336C220.651 76.9539 219.818 76.6893 218.599 76.3021C219.231 75.7449 219.605 75.4158 220.046 75.0264C219.945 74.6091 219.838 74.1595 219.739 73.7464C220.322 73.4044 220.836 73.1054 221.283 72.8429C220.86 71.0058 220.449 69.2224 220.124 67.8069C219.16 67.5875 218.285 67.3874 217.452 67.1981V64.4789C218.093 63.7346 218.743 62.9795 219.321 62.3083C220.38 62.5859 221.35 62.8419 222.637 63.1818C222.576 62.0631 222.527 61.1854 222.484 60.3766C221.318 60.198 220.472 60.0689 219.717 59.9549C219.444 59.0234 219.235 58.3114 219.04 57.6402C219.369 57.3928 219.595 57.2229 220.066 56.87C219.229 56.4506 218.616 56.1451 217.91 55.7923C218.095 50.9327 220.145 46.4624 221.344 41.6759C221.881 41.7147 222.439 41.7577 223.08 41.805C223.45 41.0134 223.835 40.1937 224.196 39.4236C223.564 39.088 223.099 38.8428 222.075 38.3007C223.525 38.064 224.336 37.9328 225.278 37.7801C225.549 37.2767 225.861 36.7044 226.132 36.2032C225.745 35.6805 225.435 35.2631 225.25 35.0136C224.256 35.147 223.514 35.2459 222.772 35.347C222.712 35.1728 222.649 34.9985 222.589 34.8243C223.088 34.2822 223.587 33.7401 223.994 33.2947C224.936 33.5228 225.672 33.6992 226.294 33.8498C227.072 33.2883 227.694 32.8408 228.294 32.4084C228.38 31.8706 228.46 31.3673 228.447 31.4512C230.058 29.9087 231.295 28.7234 232.47 27.5983C232.702 23.5002 228.985 23.8014 226.73 22.3558C225.878 23.1775 225.014 24.01 224.119 24.8727C224.282 25.1674 224.558 25.6708 225.054 26.5722C223.936 26.3678 223.23 26.2409 222.477 26.1032C222.12 26.3334 221.718 26.5958 221.182 26.94C221.107 26.0924 221.047 25.4234 220.974 24.6145C219.59 26.7722 218.293 28.7965 216.805 31.122C215.809 28.6309 217.689 27.3681 218.031 25.6751C218.394 23.8638 218.571 22.1578 218.254 20.3766H215.512C215.421 21.4264 215.34 22.3579 215.243 23.4787C213.257 24.0832 211.96 26.0494 209.325 26.6496C209.961 24.1047 212.732 24.2488 213.229 21.876C213.163 21.6437 212.98 21.0112 212.76 20.2497C211.231 20.2497 209.802 20.0432 208.469 20.3056C207.085 20.5767 205.706 21.1554 204.487 21.8739C203.389 22.5214 202.512 23.5432 201.322 24.5866V22.0374C202.852 20.8564 204.179 19.8345 206.085 18.3652H213.73C215.122 17.7887 216.525 17.2079 218.089 16.5582C218.698 15.6977 219.425 14.6673 220.188 13.5874C218.642 11.2511 216.447 10.2271 214.012 9.61188C213.677 8.45022 213.348 7.31652 212.958 5.97631C211.964 6.55069 211.089 7.05623 210 7.68439C209.422 7.65857 208.602 7.622 207.421 7.57037C208.423 6.90349 209.14 6.47324 209.802 5.97201C210.605 5.36751 212.154 5.24489 211.42 3.46368C209.942 2.73871 208.658 0.669231 206.952 2.56016C205.732 1.89328 204.717 1.33826 203.91 0.899414C200.61 1.09518 197.583 1.27588 194.595 1.45228C194.191 2.01375 193.853 2.48272 193.513 2.95599C193.036 2.78174 192.644 2.63761 192.302 2.51068C190.93 3.57769 189.607 4.60813 188.273 5.64502C188.692 6.00213 189.172 6.40871 189.639 6.80668C189.31 7.2692 189.064 7.61339 188.907 7.83497C189.34 8.64168 189.718 9.34728 190.418 10.6509C189.075 10.1217 188.333 9.82916 187.683 9.57316C187.587 8.6761 187.513 7.99847 187.457 7.46926C186.492 6.98309 185.678 6.5722 184.725 6.09033C184.5 6.80238 184.291 7.45851 184.076 8.13399C183.2 8.42871 181.828 7.14227 181.395 8.94285C181.86 9.67212 182.331 10.4078 182.811 11.1608C184.289 11.5975 186.152 10.6703 187.266 12.6817C185.939 12.3827 184.609 12.0815 183.256 11.776C183.211 12.26 183.185 12.5462 183.146 12.9678C182.391 12.7828 181.765 12.6301 181.06 12.4558C181.84 13.7351 181.993 14.7103 181.52 15.3815C180.559 14.6716 179.825 13.2281 178.201 14.3747C178.468 15.4697 178.73 16.5345 179.035 17.7844C179.724 18.3889 180.509 19.0773 181.294 19.7678C181.208 19.8216 181.124 19.8732 181.038 19.927C181.658 21.4931 182.277 23.0614 182.955 24.7737C182.428 24.8361 182.026 24.8834 181.58 24.9351C180.778 23.4507 180.012 22.0395 179.248 20.6262C179.035 20.8456 178.822 21.065 178.609 21.2844C177.874 19.9313 177.138 18.5804 176.293 17.0272C176.316 16.9691 176.344 16.8981 176.377 16.8206C175.37 16.3151 174.649 14.9663 173.092 15.7579C172.162 17.9522 173.733 19.6753 174.438 21.7792C173.735 22.1492 173.006 22.53 172.102 23.0033C171.569 21.4522 171.095 20.0712 170.637 18.7352C170.908 18.6686 171.177 18.6019 171.446 18.5352C171.293 18.3287 171.14 18.12 170.99 17.9135H169.482C169.295 18.3545 169.118 18.7761 168.813 19.4989C168.269 18.4965 167.886 17.7952 167.606 17.2767C165.123 18.2706 162.83 19.1891 160.614 20.0755V21.2307C159.502 21.932 158.605 22.4977 158.136 22.7946C158.244 24.6533 158.321 25.9978 158.399 27.3423C158.308 28.0608 158.53 28.818 158.964 29.4268C159.616 30.3411 159.492 31.0037 158.429 31.7222C157.941 31.036 157.497 30.3131 156.953 29.6742C156.067 28.6309 155.26 28.8396 154.421 30.0679C153.369 31.6082 152.182 33.0517 151.078 34.5554C150.476 35.3771 149.927 36.2355 149.329 37.1132C149.654 37.7844 149.94 38.3803 150.181 38.8793C151.551 38.9761 152.775 39.06 153.984 39.1461V42.8182C153.223 44.1972 152.522 45.4685 151.844 46.6947C150.491 47.0024 149.163 47.3057 147.832 47.6112C146.903 50.2421 143.96 49.9818 142.329 51.7071C142.118 52.3482 141.882 53.0731 141.619 53.8777C142.493 54.9426 143.392 56.0375 144.328 57.1777C144.566 56.9109 144.777 56.6764 144.923 56.5108C145.956 56.9583 145.75 58.8148 147.262 58.5803C148.426 58.4017 149.542 57.9155 151.022 57.4616C151.1 58.135 151.188 58.8922 151.285 59.7161C148.329 59.4063 146.014 60.2991 143.306 61.891C145.343 62.9494 146.937 63.7798 148.398 64.537C147.894 64.9156 147.187 65.4491 146.446 66.0063C147.492 67.3336 148.628 68.4695 150.448 68.2888C150.672 67.7768 150.878 67.3014 151.095 66.8001C151.719 67.2153 152.195 67.5315 152.657 67.8413C153.287 67.2755 153.797 66.8173 154.307 66.3591C155.03 66.6388 155.675 66.4258 156.303 66.4667C157.209 66.5269 158.102 66.7743 159.13 66.9658C160.543 68.9212 164.48 69.459 163.026 73.4022C163.854 74.0132 164.607 74.5704 165.491 75.2243C165.478 76.5861 167.159 78.0231 165.5 79.5526C165.997 79.8366 166.556 80.1571 167.294 80.5787C166.879 80.8864 166.623 81.0757 166.367 81.265C166.842 81.8049 167.298 82.3234 167.677 82.7536C167.746 83.5754 167.804 84.2616 167.847 84.7672C168.4 85.1738 168.802 85.4706 168.819 85.4814V89.0395C169.256 88.6544 169.54 88.4049 170.101 87.9123C170.392 89.2009 170.613 90.1775 170.79 90.9605C173.049 92.6428 173.627 95.0931 173.991 97.8638C173.182 97.3454 172.373 96.8269 171.336 96.1622C171.183 96.1536 170.749 96.1493 170.321 96.0955C169.949 96.0482 169.583 95.9406 169.146 95.8438C169.146 96.7108 169.346 97.44 169.112 97.98C168.101 100.297 168.075 100.428 169.858 102.459C170.628 102.1 171.457 101.715 171.967 101.478C172.666 100.656 171.399 99.5827 172.909 99.3805C173.933 101.252 174.357 103.238 173.756 105.176C172.61 105.724 171.558 106.228 170.499 106.733C170.777 107.269 170.966 107.635 171.151 107.996C172.283 108.08 173.376 108.162 174.653 108.256C174.46 108.857 174.359 109.237 174.202 109.594C174.178 109.65 173.89 109.588 173.724 109.579C173.698 109.3 173.672 109.02 173.636 108.603C172.687 108.895 171.891 109.141 171.046 109.401C170.921 110.15 170.798 110.879 170.678 111.602C171.063 111.72 171.386 111.817 171.726 111.92V112.77C172.184 112.671 172.528 112.595 172.874 112.52C172.98 112.686 173.085 112.851 173.191 113.017C172.657 113.559 172.124 114.101 171.586 114.646C172.012 114.826 172.423 115.001 172.935 115.216C172.326 115.747 171.846 116.166 171.743 116.257C172.035 118.038 172.154 119.417 172.506 120.734C172.872 122.089 172.861 123.823 174.995 123.941C175.279 127.587 177 130.638 179.55 132.193C180.348 131.847 181.193 131.479 182.241 131.023V132.905C183.383 133.486 184.461 134.032 185.706 134.665C186.115 131.716 186.479 129.098 186.87 126.266C187.158 125.63 187.554 124.756 187.95 123.881C188.426 123.808 188.927 123.73 189.37 123.664C189.17 121.955 188.983 120.376 188.796 118.797C190.523 119.081 190.476 117.541 191.039 116.526C191.876 116.487 192.73 116.448 193.657 116.405C193.786 115.747 193.896 115.183 193.989 114.714C194.494 114.99 194.98 115.252 196.002 115.807C196.381 115.17 196.628 114.149 197.181 113.944C198.412 113.488 198.896 112.737 199.203 111.546C200.003 108.435 202.606 107.037 205.255 106.127C209.563 104.647 209.596 104.789 212.418 102.526C213.257 101.854 214.296 101.435 215.234 100.906C215.35 100.346 215.466 99.7935 215.593 99.1868C214.421 98.6964 213.33 98.2403 212.203 97.767C211.588 98.1112 210.938 98.4748 210.624 98.6512H210.631Z" fill="#D2D2D2"/>
<path d="M197.035 255.23C193.8 255.826 192.739 252.434 190.521 251.722C188.492 251.554 186.789 251.414 184.696 251.24C184.579 251.309 184.102 251.599 183.564 251.922C183.422 251.229 183.304 250.651 183.114 249.721C180.326 248.977 177.472 248.215 174.561 247.437C174.555 247.312 174.445 247.004 174.546 246.802C174.813 246.277 175.174 245.8 175.396 245.462C174.729 244.358 173.903 243.433 173.595 242.36C173.249 241.155 172.496 240.604 171.603 239.871C169.566 238.193 167.215 238.595 164.962 238.453C163.162 237.038 161.406 235.656 159.573 234.215C158.954 233.647 158.255 233.006 157.571 232.378C157.816 232.163 158.225 231.801 158.956 231.158C155.275 232.277 151.975 232.195 148.587 231.52C147.998 231.059 147.329 230.539 146.791 230.119C145.335 230.24 144.123 231.67 142.897 230.382C143.132 229.939 143.308 229.605 143.564 229.119C141.436 230.037 139.586 230.836 137.956 231.539C137.091 232.875 136.329 234.05 135.568 235.226C134.127 234.28 133.118 232.44 131.123 233.673C131.655 233.753 132.175 233.83 132.591 233.89C133.32 235.129 133.961 236.218 134.714 237.498C134.776 238.797 134.849 240.338 134.942 242.289C134.088 243.242 132.838 244.401 131.883 245.767C130.824 247.28 129.08 248.631 130.162 250.702C130.543 251.122 130.926 251.539 131.298 251.948C130.351 252.757 129.652 253.355 129.045 253.873C129.321 254.919 129.536 255.736 129.751 256.551C131.825 257.995 135.966 265.393 136.549 268.886C137.67 269.766 138.81 271.225 140.262 271.674C142.439 272.348 143.704 273.869 144.564 274.708C146.92 278.761 145.173 282.233 145.102 285.651C145.031 289.091 143.846 292.507 143.151 295.936C143.499 296.951 143.833 298.025 143.607 298.961C143.067 301.191 142.473 303.459 141.501 305.522C140.597 307.439 140.182 309.209 140.798 310.45C140.419 312.468 140.165 313.821 139.909 315.179C140.81 315.336 141.303 315.42 142.254 315.583C141.439 315.889 141.127 316.007 140.664 316.181C142.303 317.588 141.286 319.219 141.129 320.793C141.393 321 141.658 321.206 141.768 321.29C141.213 322.648 140.679 323.951 140.085 325.41C139.666 325.027 139.281 324.674 138.795 324.233C138.513 324.786 138.294 325.219 138.128 325.548C138.958 326.78 139.733 327.925 140.544 329.127C140.034 329.252 139.621 329.353 139.27 329.439C139.201 330.96 140.4 332.427 139.124 333.703C138.496 333.533 138.063 333.417 137.379 333.234C137.982 334.002 138.384 334.52 138.668 334.882C139.313 334.83 139.804 334.791 140.578 334.731C140.174 335.299 139.935 335.635 139.761 335.88C140.103 336.545 140.397 337.119 140.634 337.575C140.894 337.126 141.084 336.796 141.275 336.465C141.458 336.62 141.641 336.775 141.824 336.932C141.772 337.304 141.718 337.678 141.654 338.139C142.57 338.752 143.517 339.387 144.511 340.051C144.904 340.845 145.322 341.686 145.784 342.624C145.343 343.407 144.885 344.22 144.409 345.068C145.502 345.191 146.578 345.311 147.634 345.427C147.931 345.829 148.228 346.234 148.563 346.69C149.228 346.23 149.807 345.832 150.19 345.565H152.659C151.302 344.646 150.254 343.934 149.263 343.263C148.516 341.929 147.8 340.649 146.967 339.163C147.012 339.122 147.307 338.853 147.434 338.739C147.139 337.412 146.87 336.196 146.619 335.054C147.447 334.357 148.032 333.866 148.617 333.374C148.536 333.32 148.454 333.264 148.372 333.21C149.611 331.425 150.85 329.641 152.102 327.837C150.973 326.759 148.992 326.86 149.091 324.448C149.598 324.001 150.244 323.125 151.106 322.751C152.076 322.329 152.27 321.635 152.498 320.817C152.788 319.774 153.111 318.741 153.442 317.629C153.214 316.616 152.961 315.484 152.644 314.088H156.777C157.089 312.632 157.353 311.397 157.627 310.121C158.154 310.121 158.588 310.115 159.023 310.121C162.265 310.179 164.455 309.119 165.646 305.675C165.986 304.692 166.821 303.627 167.72 303.134C170.938 301.37 172.059 297.859 174.454 295.424C175.45 294.411 176.095 293.038 176.822 291.784C177.093 291.315 177.209 290.726 177.28 290.177C177.461 288.805 177.575 287.426 177.721 285.989C179.862 284.724 181.903 283.517 183.919 282.327H186.926C191.003 277.917 191.917 272.52 191.818 267.858C194.086 264.078 197.155 262.003 198.141 258.401C197.779 257.369 197.446 256.414 197.031 255.23H197.035Z" fill="#D2D2D2"/>
<path d="M477.417 286.316C475.997 284.72 474.892 283.474 473.784 282.231C473.865 282.164 473.949 282.097 474.031 282.031C473.508 281.744 472.986 281.458 472.458 281.172C471.908 278.662 470.017 277.384 467.967 276.328C466.267 273.606 467.098 269.599 463.755 268.164C463.159 266.552 462.655 265.191 462.152 263.829C461.954 263.827 461.758 263.825 461.56 263.823C461.324 265.296 460.934 266.768 460.891 268.245C460.833 270.253 460.446 272.128 459.588 273.989H457.512C455.907 271.832 452.467 272.055 451.344 269.059C452.022 268.878 452.644 268.712 453.242 268.553C452.994 267.624 452.76 266.742 452.598 266.137C450.458 265.554 448.623 265.053 446.775 264.55C446.857 264.885 446.936 265.204 447.091 265.832C446.201 265.511 445.484 265.253 444.665 264.958C444.779 265.335 444.869 265.638 444.942 265.879C444.292 266.438 443.662 266.983 443.116 267.454C443.075 268.241 443.043 268.848 443.012 269.437C442.044 269.723 441.294 269.945 440.618 270.145C440.192 269.487 439.799 268.878 439.463 268.359C438.31 268.841 437.372 269.233 436.303 269.678C436.679 271.649 434.261 271.548 433.829 272.944C433.3 272.894 432.852 272.851 432.592 272.828C431.897 274.338 431.303 275.628 430.755 276.82C427.106 278.117 423.639 279.35 420.048 280.628C419.693 281.861 419.317 283.166 418.942 284.47C419.351 286.131 419.261 287.826 419.627 289.416C420.119 291.558 420.95 293.626 421.659 295.717C422.326 297.683 422.653 299.61 421.186 301.394C421.804 301.85 422.419 302.304 423.019 302.745H425.996C428.113 300.501 430.895 300.772 433.603 301.045C434.976 299.092 436.673 298.197 438.977 298.001C441.066 297.825 443.103 297.042 445.162 296.528C445.695 296.874 446.19 297.468 446.695 297.474C448.593 297.504 449.683 298.539 450.533 300.06C450.961 300.828 451.488 301.542 451.878 302.14C453.007 302.076 452.887 299.963 454.53 301.052V303.489C455.012 302.693 455.309 302.203 455.834 301.338C456.062 302.411 456.012 303.353 456.335 303.506C458.211 304.388 457.677 306.692 458.85 307.71C460.128 308.82 461.95 309.304 463.598 310.089C464.219 309.564 464.863 309.02 465.555 308.435C466.246 309.026 466.818 309.519 467.237 309.88C469.075 309.061 470.757 308.308 472.74 307.424C472.884 306.772 473.001 305.651 473.388 304.631C474.083 302.803 474.575 300.69 475.842 299.352C476.905 298.229 477.189 297.096 477.52 295.833C477.884 294.441 478.159 293.025 478.437 291.776C478.114 290.674 477.738 289.71 477.565 288.71C477.398 287.742 477.441 286.74 477.419 286.316H477.417Z" fill="#D2D2D2"/>
<path d="M107.929 45.5225C109.344 45.1137 110.624 44.7459 111.956 44.3608C112.001 44.9868 112.048 45.6322 112.087 46.1571C112.483 46.3593 112.765 46.5034 113.049 46.6476C113.012 46.7379 112.973 46.8304 112.937 46.9208C112.281 46.8756 111.622 46.8326 110.966 46.7874C111.276 47.0778 111.588 47.3661 111.898 47.6565C111.065 47.6974 110.233 47.7382 109.288 47.7856C110.687 49.1903 111.683 50.1928 112.78 51.2942C112.535 51.2942 112.345 51.2985 112.156 51.2942C111.939 51.2878 111.721 51.2748 111.474 51.2641C111.896 53.5164 113.72 53.6756 115.2 54.1962C116.112 53.8628 116.906 53.5745 117.753 53.2647C117.889 52.557 118.009 51.9159 118.091 51.49C118.646 51.2383 119.018 51.0705 119.479 50.8618C119.107 50.6187 118.907 50.4875 118.674 50.3369C119.229 49.8335 119.73 49.3775 120.245 48.9106C121.37 50.438 119.941 51.2619 119.535 52.3526C119.791 52.9119 120.038 53.4476 120.182 53.7638C121.52 54.3167 122.669 54.7921 123.82 55.2675C123.577 56.2012 123.411 56.8444 123.23 57.5392C123.719 57.9759 124.156 58.3653 124.708 58.8579C124.093 58.8966 123.594 58.9289 122.966 58.9676C121.718 56.3517 120.335 55.8677 118.76 57.1692C119.259 58.5761 119.743 59.9314 120.137 61.0436C118.844 61.7234 117.842 62.2483 116.902 62.743C117.013 64.0574 117.091 64.976 117.136 65.4945C119.35 67.579 120.301 64.2941 121.972 64.8276C121.903 65.3546 121.856 65.7225 121.804 66.1291H124.044C124.205 65.6536 124.334 65.2707 124.504 64.7695C125.091 65.2363 125.623 65.6601 126.04 65.9935C127.215 65.6838 128.239 65.4149 129.368 65.118C129.508 65.9333 129.605 66.4905 129.772 67.4607C131.298 66.0495 132.631 64.8706 133.866 63.5971C134.017 63.4422 133.636 62.7732 133.513 62.3795C133.13 62.7129 132.846 62.9603 132.36 63.382C132.145 62.2719 131.99 61.4652 131.835 60.6607C132.414 59.9658 132.982 59.2817 133.703 58.4148C133.586 57.5306 133.449 56.4722 133.283 55.2051C134.098 55.3901 134.729 55.5321 135.452 55.6956C136.103 55.2998 136.828 54.8588 137.753 54.2952C136.964 52.0149 139.505 49.8206 137.398 47.564C138.009 47.422 138.343 47.3446 138.67 47.2671C138.618 46.8024 138.569 46.37 138.524 45.9699C137.964 45.8882 137.48 45.8193 136.925 45.7376C137.629 43.9435 139.008 43.8875 139.838 43.937C141.174 43.098 142.056 42.5796 142.899 42.0031C143.25 41.7643 143.835 41.319 143.779 41.1189C143.357 39.6302 144.73 39.0021 145.235 38.0018C146.266 35.9624 147.496 34.0177 148.748 32.101C149.538 30.892 150.517 29.8077 151.409 28.6676C152.083 27.6544 153.999 27.5059 153.328 25.4386C152.5 25.7806 151.764 26.0861 151.044 26.383C150.77 25.9893 150.566 25.7979 150.493 25.5634C150.42 25.3267 150.476 25.0492 150.476 24.7889C152.164 23.5627 153.366 22.9797 154.081 23.04C156.009 21.1189 158.425 19.512 158.917 16.1066C157.898 15.5967 156.91 15.102 155.94 14.6158C156.142 14.4802 156.346 14.3426 156.602 14.1705C155.099 13.3336 155.406 10.806 153.236 10.6468C153.083 10.8404 152.945 11.0189 152.795 11.2082C152.605 10.9565 152.455 10.7543 152.33 10.5887C151.977 10.9824 151.618 11.3825 150.915 12.1677C150.831 11.0964 150.783 10.5134 150.745 10.0186C149.275 9.60987 147.817 9.20544 146.373 8.80316C146.07 8.44175 145.747 8.05668 145.451 7.70603C142.781 8.5321 140.223 8.3385 139.003 7.41992C137.607 7.58126 136.439 7.71679 135.28 7.85017C134.819 8.68699 134.41 9.42917 133.903 10.352C132.933 10.1713 131.952 9.99064 130.897 9.79488C130.706 10.2811 130.523 10.7457 130.347 11.1953C129.796 11.3007 129.275 11.4018 128.815 11.49C129.103 12.1634 129.314 12.6603 129.546 13.2003H127.81C127.382 14.5771 126.989 15.8355 126.52 17.3435C125.134 16.6422 123.953 16.0463 122.611 15.3687V17.9609C121.912 18.1051 121.337 18.2234 120.881 18.318C120.52 19.3205 120.208 20.1832 119.87 21.1211C119.621 20.5962 119.412 20.1595 119.13 19.5701C118.59 19.8562 118.134 20.0412 117.743 20.3187C117.078 20.792 116.51 21.418 115.804 21.8073C114.808 22.3559 113.886 22.926 113.386 23.9994C113.608 24.3651 113.83 24.7308 114.01 25.0256C114.512 24.6104 115.017 24.1909 115.525 23.7714C115.697 23.894 115.869 24.0188 116.041 24.1414C115.772 24.8556 115.503 25.5677 115.282 26.1528C115.89 26.7788 116.514 27.4199 117.282 28.2094C116.489 28.5127 116.048 28.6827 115.344 28.9516C116.103 29.5647 116.714 30.0573 117.418 30.6231C117.377 30.8274 117.297 31.2189 117.207 31.675C118.003 32.4258 118.784 33.1658 119.578 33.9144C120.01 33.3766 120.217 33.1185 120.464 32.813C121.075 33.6326 121.525 34.2328 121.6 34.3361C123.745 35.5214 125.319 34.4565 126.918 34.3425C128.654 34.2199 130.304 32.8969 131.902 32.1397C131.786 31.6341 131.702 31.2598 131.48 30.2939C132.545 31.2706 133.145 31.8213 133.806 32.4258C132.877 32.9442 131.93 33.1508 131.582 33.723C130.39 35.672 128.389 36.1001 126.509 36.6874C126.438 37.5307 127.572 38.3266 126.313 39.0924C125.894 38.5589 125.491 38.0491 125.207 37.6877C123.82 37.4468 122.656 37.2467 121.335 37.0165V39.3226C121.75 39.4861 122.116 39.6302 122.751 39.8798C121.905 40.0626 121.333 40.1853 120.625 40.3359C120.948 41.1232 121.236 41.831 121.639 42.8162C119.41 42.173 120.372 40.5402 120.001 39.5872C119.533 39.2602 119.137 38.9827 118.741 38.7074C118.917 38.5998 119.094 38.4922 119.272 38.3847C119.363 37.6554 119.451 36.9262 119.541 36.199C117.917 35.6139 116.486 35.0976 114.925 34.534C114.359 32.8991 113.817 31.1006 113.113 29.371C112.614 28.1448 111.665 27.2908 110.278 27.095C110.142 27.0757 109.983 27.2263 109.521 27.4522C109.906 28.0437 110.265 28.5966 110.665 29.2119C110.418 29.6658 110.142 30.1735 109.895 30.6295C109.331 30.5714 108.884 30.5263 108.092 30.4467C108.254 31.4169 108.37 32.1225 108.473 32.7399C107.879 34.2522 107.303 35.7236 106.728 37.1886C107.187 37.4317 107.645 37.6726 108.378 38.0599C107.434 38.204 106.86 38.2922 106.12 38.4062C106.735 40.8199 107.301 43.0356 107.935 45.5289L107.929 45.5225Z" fill="#D2D2D2"/>
<path d="M147.597 96.5664C146.696 96.3104 145.881 96.076 145.035 95.835C144.313 94.7185 143.592 93.6085 142.74 92.2941C142.168 92.6813 141.675 93.0169 141.172 93.3568C139.369 92.0338 138.13 90.1128 137.747 87.9228C136.118 87.8368 135.295 86.9246 135.654 85.2359C134.318 85.1434 133.208 85.066 132.212 84.9971C131.579 83.8893 131.037 82.9427 130.555 82.0994C128.495 82.2221 126.724 80.9507 124.859 82.9341C123.261 84.6314 122.482 86.1545 122.858 88.3552C123.099 88.3789 123.34 88.4004 123.641 88.4262V89.1361C122.731 89.8933 122.131 90.3946 121.348 91.0464C121.107 89.2673 120.903 87.7636 120.666 86.0254C120.924 85.3715 121.202 84.4529 121.643 83.6225C122.067 82.8223 122.66 82.1123 123.222 81.3013C119.997 80.6818 117.652 82.2156 117.056 85.3715C116.583 87.8755 116.334 90.4204 115.977 93.0105C117.351 93.3783 118.41 93.6623 120.021 94.0947C118.651 94.6992 117.887 95.0369 117.108 95.379C117.519 96.7773 118.306 97.6507 119.881 97.6098C120.281 97.599 120.757 97.6915 121.079 97.911C122.682 99.0038 124.431 99.3222 126.302 99.1372C126.384 98.7241 126.44 98.3993 126.524 98.0809C126.537 98.0293 126.675 98.0099 126.855 97.9346C128.021 98.8898 130.142 98.1347 130.921 100.215C131.878 99.533 132.799 98.8747 133.752 98.1971C134.666 99.2641 135.57 100.32 136.473 101.374C136.271 101.46 136.071 101.544 135.869 101.63C135.927 102.377 135.97 103.123 136.056 103.866C136.071 103.999 136.271 104.113 136.439 104.294C136.856 104.059 137.287 103.816 137.7 103.584C140.546 105.229 142.069 107.708 142.536 110.812C141.507 112.219 140.505 113.585 139.541 114.903C139.95 115.624 140.311 116.263 140.748 117.033C138.769 117.717 137.106 118.75 135.166 117.466C134.57 118.421 134.053 119.251 133.492 120.15C134.765 121.323 135.548 121.327 136.654 120.667C137.452 120.191 138.599 120.301 139.81 120.116C140.976 121.23 142.303 122.495 143.643 123.775C143.568 124.13 143.491 124.507 143.426 124.81C144.726 125.685 145.831 126.593 147.077 127.224C148.398 127.895 149.852 128.306 151.248 128.831C151.33 128.697 151.412 128.564 151.495 128.433C150.34 127.183 149.185 125.933 147.989 124.638C148.411 124.39 148.826 124.147 149.226 123.913C150.418 124.616 151.569 125.294 152.72 125.972C152.881 125.86 153.042 125.75 153.204 125.638C153.003 124.866 152.509 124.027 152.666 123.338C153.001 121.869 152.332 121.086 151.455 120.058C150.377 118.795 149.564 117.244 148.914 115.699C148.31 114.267 148.77 113.6 150.188 112.991C151.089 113.783 151.973 114.557 152.926 115.394C152.743 116.67 153.234 117.666 154.854 118.137C155.036 117.47 155.198 116.878 155.31 116.472C155.854 116.317 156.166 116.229 156.516 116.13C156.596 115.368 156.665 114.688 156.697 114.385C157.332 113.568 157.756 113.023 157.949 112.774C156.504 111.793 154.864 111.261 154.361 110.194C153.664 108.714 152.735 108.461 151.528 108.239C150.164 107.107 148.701 106.122 147.264 105.1C147.021 104.928 146.89 104.601 146.649 104.268C147.253 103.997 147.707 103.795 148.17 103.59C148.135 103.181 148.103 102.807 148.077 102.502C148.38 102.396 148.624 102.312 148.662 102.297C148.29 100.301 147.95 98.466 147.597 96.5664Z" fill="#D2D2D2"/>
<path d="M97.9969 103.111C98.2163 102.833 98.2378 102.399 98.3841 101.927C97.6979 101.975 97.1342 102.014 96.5728 102.052C96.547 101.906 96.5211 101.762 96.4953 101.616C97.4849 101.153 98.4744 100.688 99.6167 100.155C99.6038 99.8688 99.5802 99.3783 99.563 98.9825C97.2827 97.7563 95.0476 96.7559 94.1655 94.2605C95.2175 91.2015 92.3757 88.7878 92.8554 85.5889C91.7476 84.9392 90.644 84.2917 89.5404 83.6442C89.3533 83.7604 89.1661 83.8744 88.9789 83.9905C89.2995 86.2687 89.62 88.5469 89.9384 90.8078C89.5727 90.9412 89.2478 91.0595 88.923 91.1756C88.0776 89.5472 88.7143 87.1894 86.4598 86.1138C85.737 86.8883 85.0745 87.6003 84.2333 88.506C84.0247 87.553 83.8805 86.9033 83.6955 86.06C82.4586 85.8879 81.2259 85.718 80.2148 85.5782C80.0277 84.7908 79.8792 84.1669 79.7028 83.4291C79.1435 83.6786 78.9241 83.8163 78.6853 83.8722C78.3906 83.9411 78.0808 83.9389 77.7474 83.9712C77.8664 82.5141 76.7937 80.7759 74.5291 78.7566C73.9612 78.9739 73.2707 79.2363 72.72 79.4493C71.5217 78.7028 70.3192 77.9521 69.2307 77.2744C67.6259 77.5519 66.2039 77.7972 64.4786 78.0962C64.8615 79.2944 65.2122 80.398 65.5349 81.4112C64.627 84.3175 63.7278 87.1916 62.8286 90.0656C64.9325 90.6959 66.0103 92.3911 66.7395 94.2992C67.927 93.6151 69.0091 92.9913 70.089 92.3696C69.9857 92.3158 69.8825 92.262 69.7792 92.2082C70.7666 90.3001 71.7519 88.3898 72.6769 86.5978C73.5181 86.0966 74.2108 85.6857 74.9013 85.2748C74.7227 86.3892 73.6665 87.4411 73.8752 88.0714C74.3958 89.6332 72.4209 89.971 72.7565 91.3693C73.83 92.0426 75.0003 92.7762 76.2286 93.5463C75.3961 94.0239 74.7055 94.4219 73.9505 94.8542C74.3592 95.5749 74.6432 96.0718 75.039 96.7667C76.5814 96.5473 78.1066 96.3644 79.6211 96.1084C81.2216 95.8395 82.1574 96.515 82.1746 98.1327C79.8685 98.4619 77.315 97.6874 75.0906 99.5332C75.921 100.542 76.7169 101.506 77.5323 102.495H80.7096C80.8731 103.515 81.0065 104.345 81.1657 105.339C82.0821 105.389 82.8673 105.578 83.5966 105.445C86.5158 104.909 89.3597 104.143 91.5045 102.149C92.1326 102.547 92.6941 102.9 93.1201 103.171C93.0598 103.668 93.0125 104.053 92.9652 104.425C93.389 104.126 93.8127 103.829 94.2021 103.554C95.85 104.662 96.8589 104.543 97.9947 103.113L97.9969 103.111Z" fill="#D2D2D2"/>
<path d="M92.9675 104.421C92.9351 104.445 92.9005 104.468 92.8681 104.492C92.8659 104.505 92.8659 104.516 92.8638 104.529C92.8919 104.542 92.9221 104.557 92.9502 104.57C92.9567 104.52 92.9631 104.471 92.9675 104.421Z" fill="#D2D2D2"/>
<path d="M266.139 51.2338H269.673C269.411 51.6855 269.181 52.0857 268.94 52.503C269.284 52.916 269.6 53.2925 270.121 53.9142C270.701 52.6773 271.155 51.7092 271.691 50.5691C272.638 50.9606 273.593 51.3586 274.896 51.8985C273.212 53.243 271.902 54.2907 270.413 55.4803V56.4139C270.945 56.7022 271.431 56.9668 271.921 57.2314C271.48 58.0446 271.127 58.6985 270.678 59.5289C271.689 60.5421 272.638 61.493 273.702 62.5621C273.702 62.5621 273.623 62.8741 273.53 63.2419C273.956 63.599 274.402 63.969 274.795 64.2982C275.682 62.2222 274.995 59.6408 277.073 57.8746V54.9188C277.261 54.8091 277.695 54.5553 278.093 54.3208V51.0595C279.296 50.5024 280.468 49.956 281.851 49.3127C280.274 48.2479 278.981 47.3723 277.557 46.4107V43.6335C277.073 44.0788 276.721 44.4058 276.366 44.7306C276.228 44.6639 276.092 44.5972 275.955 44.5284C276.163 43.7604 276.372 42.9924 276.721 41.7017C276.144 41.2155 275.249 40.4604 274.098 39.4902C273.831 40.5788 273.655 41.293 273.483 42.0072C273.319 42.687 273.165 43.3689 272.887 44.5628C272.397 43.2828 272.13 42.5901 271.846 41.8458C271.39 42.2266 271.059 42.5019 270.637 42.8548C270.342 42.1771 270.127 41.6823 269.912 41.1875C269.105 41.521 268.443 41.7963 267.952 42.0007C267.584 41.7447 267.416 41.6113 267.229 41.5102C267.199 41.493 267.096 41.6049 267.027 41.6587C265.857 44.5241 265.861 44.5628 267.763 47.5939V49.9925C267.337 50.3152 266.991 50.5798 266.141 51.2273L266.139 51.2338Z" fill="#D2D2D2"/>
<path d="M118.057 75.4889C118.13 75.59 118.203 75.689 118.276 75.7901C118.117 76.0956 117.958 76.4011 117.736 76.8249C120.058 77.7219 122.342 76.8937 124.573 77.0765C125.092 76.6377 125.601 76.2053 125.933 75.9256C126.683 76.4312 127.29 76.8378 127.785 77.1712C128.919 76.8399 129.865 76.5602 130.967 76.2376C130.62 75.8654 130.414 75.646 130.173 75.3878C130.551 75.2265 130.913 75.0738 131.332 74.8952C130.911 74.7296 130.536 74.5833 130.149 74.4327C130.657 73.74 131.141 73.0796 131.61 72.4406C129.695 70.5375 127.095 69.933 123.809 70.6272C123.143 71.0015 122.476 71.3758 121.845 71.7307C120.339 71.4683 118.741 71.1908 117.513 70.9757C116.753 69.9388 116.198 69.1794 115.596 68.3576C115.91 67.8844 116.278 67.3315 116.652 66.7657C115.682 66.3269 114.832 65.9439 113.802 65.4771C114.391 65.2405 114.699 65.1157 115.007 64.9931C115.011 64.8683 115.015 64.7436 115.019 64.6209C113.955 64.565 112.89 64.5091 111.36 64.4273C110.386 62.4288 108.422 61.8028 106.09 61.9298C105.444 63.9347 107.26 65.0103 107.748 66.5678H111.902C112.178 67.8478 113.055 69.4461 112.657 70.6078C111.98 72.5891 112.849 74.0992 113.07 75.8546C114.252 76.1494 115.314 76.414 116.254 76.6484C116.915 76.2225 117.483 75.8568 118.048 75.4911L118.057 75.4889Z" fill="#D2D2D2"/>
<path d="M390.357 40.1465C390.518 40.2799 390.682 40.4154 390.843 40.5488C390.32 41.3663 389.798 42.1837 389.23 43.0722C389.746 43.4315 390.155 43.7154 390.486 43.9478C390.755 45.075 391.009 46.1442 391.269 47.2456C392.211 47.4091 393.009 47.5468 393.833 47.6887C394.257 48.0738 394.702 48.4804 395.41 49.1258C396.49 48.8891 397.51 48.6654 398.334 48.4868V40.0691C397.269 39.6195 396.34 39.2258 395.41 38.8343C393.694 36.5454 394.563 34.2823 395.38 32.4516C393.511 31.3157 393.549 29.2204 392.259 28.1362C391.671 28.7816 391.179 29.4937 390.523 29.9927C389.86 30.4983 389.038 30.793 388.369 31.1393C388.173 32.1461 389.077 32.9313 388.423 33.8606C387.812 34.7319 387.356 35.7129 386.844 36.6228C387.395 37.3521 388.066 38.2427 389.126 39.6474C387.758 39.3635 387.063 39.2194 386.244 39.0473C386.074 39.8733 385.923 40.6069 385.728 41.5685C386.523 41.7836 387.388 42.0202 388.031 42.1945C388.969 41.3684 389.664 40.7575 390.359 40.1487L390.357 40.1465Z" fill="#D2D2D2"/>
<path d="M426.879 239.542C425.973 238.795 425.104 238.081 424.243 237.371C421.95 239.335 419.795 241.183 417.585 243.078C417.011 243.194 416.353 243.328 415.679 243.463C415.447 244.115 415.253 244.666 415.043 245.26C413.997 245.06 412.816 244.085 412.151 245.989C412.799 247.626 413.507 249.412 414.281 251.371C415.972 251.644 417.734 251.931 419.829 252.27C420.156 252.458 420.801 252.83 421.705 253.348C423.112 250.588 424.433 247.996 425.859 245.202C424.443 242.534 424.596 241.19 426.881 239.542H426.879Z" fill="#D2D2D2"/>
<path d="M465.734 254.092C461.939 252.348 458.142 250.289 454.018 250.422C453.166 251.212 452.316 251.999 451.432 252.819C450.632 252.092 450.06 251.573 449.509 251.072C448.771 251.231 448.104 251.375 446.962 251.623C449.644 253.759 452.744 253.694 455.289 255.106C456.027 256.452 456.799 257.861 457.35 258.868C458.514 259.662 459.344 260.23 460.285 260.873H462.206C463.143 259.894 463.929 259.072 464.783 258.182C466.015 258.808 466.927 259.27 467.332 259.477C468.476 260.785 469.257 261.678 469.995 262.521C470.97 262.469 471.746 262.428 472.719 262.377C471.176 260.729 469.86 259.32 468.339 257.694C468.965 257.369 469.399 257.143 469.705 256.984C468.235 255.912 466.986 255 465.736 254.088L465.734 254.092Z" fill="#D2D2D2"/>
<path d="M76.2026 68.4806C76.8608 68.9323 77.4159 69.3131 78.2032 69.8552C77.1663 69.9391 76.4822 69.995 75.7121 70.0553C75.5142 71.0384 75.327 71.9698 75.127 72.9723C77.3298 74.1705 79.5972 73.6865 82.0388 73.807C81.2149 74.7901 80.5437 75.5925 79.8188 76.4595C80.363 76.9284 80.8707 77.3694 81.6301 78.0256C83.7233 76.7305 85.7906 75.4527 87.4212 74.4438C88.9206 74.5169 89.9317 74.5664 90.8352 74.6115C92.4917 73.0218 93.0574 70.4726 92.2077 68.4956C91.1536 68.4311 90.0457 68.3644 89.0411 68.3042C88.6496 66.6283 88.2774 65.0429 87.8687 63.2939C87.105 64.262 86.4252 65.1203 85.7239 66.0109C86.2079 66.5746 86.7049 67.1511 87.2082 67.7362C87.0942 68.2912 86.9931 68.7731 86.8942 69.255C87.2943 69.767 87.6923 70.279 88.4538 71.2556C86.7092 71.3374 85.4593 71.3976 84.3536 71.4492C83.5081 69.9219 82.7315 68.5193 81.9356 67.0823C81.4193 67.1554 80.9611 67.2178 80.3975 67.2974C80.0447 66.6004 79.7155 65.955 79.3348 65.2021C77.8784 65.9937 76.6952 66.9123 76.2026 68.4806Z" fill="#D2D2D2"/>
<path d="M322.421 267.878C321.281 269.923 319.646 271.257 317.372 271.948C316.68 272.159 316.189 273.041 315.662 273.559C315.957 275.063 316.202 276.323 316.503 277.859C313.993 280.17 314.825 282.947 315.931 285.916H319.769C321.221 280.736 322.621 275.738 324.082 270.528C324.05 270.543 324.332 270.414 324.601 270.291C324.282 269.063 323.996 267.951 323.628 266.529C323.06 267.155 322.652 267.467 322.423 267.878H322.421Z" fill="#D2D2D2"/>
<path d="M242.665 149.409C243.407 149.287 243.906 149.205 244.502 149.106C244.945 150.319 245.412 151.601 245.797 152.658C244.85 153.198 244.28 153.525 243.659 153.877C244.646 155.241 243.917 155.975 242.843 156.564C243.469 156.941 244.011 157.268 244.562 157.601C243.998 158.296 243.521 158.883 242.966 159.567C243.435 159.909 243.76 160.146 243.947 160.282C246.292 158.737 248.959 159.43 251.416 158.696C251.319 158.034 251.237 157.481 251.158 156.947C251.605 156.336 252.055 155.723 252.165 155.573C251.283 154.46 250.433 153.596 249.828 152.585C248.374 150.149 247.034 147.643 245.778 145.397C246.169 144.117 246.498 143.04 246.817 141.992C245.756 141.669 245.068 141.461 244.274 141.217C244.616 140.409 244.85 139.858 245.195 139.045C244.05 139.378 243.256 139.61 242.372 139.866C241.161 142.54 241.619 145.001 243.08 147.237C242.929 148.007 242.809 148.633 242.658 149.403L242.665 149.409Z" fill="#D2D2D2"/>
<path d="M276.998 41.2328C278.214 41.3684 279.152 41.4738 280.171 41.5878C280.049 42.0976 279.894 42.7344 279.726 43.4292C280.27 43.9176 280.771 44.3715 281.283 44.8318C282.127 44.7178 282.884 44.6167 283.596 44.5221C283.934 44.9803 284.267 45.4299 284.62 45.9074C285.691 45.3869 286.614 44.9394 287.339 44.5887C288.305 43.1732 289.163 41.9169 290.129 40.5057C290.592 37.337 287.163 38.7288 286.152 37.2208C285.603 37.7134 285.201 38.0748 284.865 38.376C284.586 37.5456 284.366 36.8938 284.147 36.2441C283.981 36.2506 283.813 36.257 283.648 36.2635C283.527 37.2789 283.405 38.2943 283.269 39.4215C281.983 38.3652 280.836 37.4252 279.502 36.328C278.685 36.9411 277.813 37.5973 276.833 38.333C277.101 38.6212 277.439 38.987 277.781 39.3548C277.568 39.8625 277.353 40.3745 276.994 41.235L276.998 41.2328Z" fill="#D2D2D2"/>
<path d="M454.702 188.129C453.164 188.514 452.575 189.39 452.293 190.689C452.155 190.734 452.078 190.788 452.003 190.784C447.859 190.524 447.874 190.539 445.153 193.176C444.484 193.824 443.684 194.336 442.957 194.925C442.866 194.998 442.856 195.174 442.78 195.381C443.202 195.327 443.568 195.28 444.155 195.205C443.692 196.328 443.92 197.268 444.77 198.47C445.392 197.173 445.854 196.209 446.117 195.656C447.9 194.923 449.365 194.32 450.899 193.69C450.557 193.004 450.301 192.49 450.043 191.976C450.224 191.892 450.404 191.808 450.585 191.722C450.979 192.402 451.372 193.081 451.949 194.075C452.495 193.402 453.037 192.733 453.644 191.986C453.954 192.079 454.509 192.245 454.599 192.27C456.264 191.612 457.518 191.115 458.854 190.586C459.51 188.252 460.237 185.675 461.107 182.586C460.885 182.181 460.371 181.245 459.859 180.307C457.693 180.8 458.248 182.121 458.514 183.212C457.871 185.436 457.045 187.542 454.707 188.127L454.702 188.129Z" fill="#D2D2D2"/>
<path d="M333.999 83.3797C334.393 81.6652 334.709 80.2884 334.944 79.2666C337.037 76.9132 338.956 74.7512 340.877 72.5913C343.305 70.7026 346.057 69.1494 348.856 67.6887C350.305 66.9315 351.383 65.9118 351.919 64.3586C351.97 64.208 351.925 64.023 351.925 63.8832C351.801 63.7132 351.723 63.5433 351.592 63.4422C351.396 63.2873 351.162 63.1819 350.731 62.9302C348.072 65.0943 345.958 68.6309 341.918 67.551C341.296 68.1405 340.894 68.8482 340.354 68.9794C338.424 69.4441 337.327 70.7843 336.277 72.2902C335.473 73.4432 334.541 74.5081 333.55 75.7579C334.436 78.2189 332.095 79.443 330.97 81.6437C331.908 82.1815 332.79 82.687 333.997 83.3776L333.999 83.3797Z" fill="#D2D2D2"/>
<path d="M407.461 255.585V255.678C407.478 255.687 407.498 255.696 407.515 255.704C407.524 255.67 407.535 255.637 407.543 255.603C407.515 255.596 407.487 255.592 407.459 255.585H407.461Z" fill="#D2D2D2"/>
<path d="M403.744 248.314C403.79 248 403.856 247.525 403.891 247.277C400.666 244.713 397.534 242.224 394.195 239.569C393.616 239.535 392.734 239.481 391.852 239.427C391.702 239.625 391.549 239.821 391.398 240.019C391.986 240.387 392.579 240.744 393.156 241.127C396.176 243.128 397.785 246.342 399.592 249.246C401.047 251.582 402.636 253.568 404.934 254.959C405.644 255.39 406.605 255.4 407.464 255.585V252.01C406.117 250.672 404.99 249.553 403.746 248.316L403.744 248.314Z" fill="#D2D2D2"/>
<path d="M110.263 76.4312C110.642 75.3341 110.882 74.6307 111.121 73.9401C110.502 72.9656 109.912 72.0363 109.282 71.0424C107.636 70.8144 105.451 72.7419 104.302 69.6699V65.6772C102.882 63.9649 100.886 65.2879 99.3627 64.5479C99.0185 65.0147 98.6119 65.5675 98.4893 65.7353C98.4247 66.9293 98.4742 67.7381 98.315 68.5061C98.1494 69.3107 97.7837 70.0744 97.4976 70.8811C98.6356 70.7864 99.808 70.6896 101.452 70.5541C100.901 71.492 100.658 71.9051 100.419 72.3138C100.692 73.0108 100.959 73.6992 101.245 74.4284C102.022 74.2026 102.639 74.024 103.17 73.8691C103.549 72.985 103.872 72.232 104.224 71.4103C105.186 71.8061 106.027 72.1524 106.815 72.4773C106.728 73.2668 106.66 73.8971 106.574 74.6823C107.843 75.2825 109.007 75.8332 110.265 76.4291L110.263 76.4312Z" fill="#D2D2D2"/>
<path d="M97.8268 85.2061C97.4804 85.5954 97.3105 85.7847 96.9985 86.1375C99.0357 88.5211 101.075 90.9068 103.117 93.2947C104.074 92.3804 104.954 91.5414 105.741 90.7863C105.93 89.6483 106.098 88.6459 106.309 87.3896C106.016 86.9744 105.573 86.3462 105.193 85.8063C105.494 85.546 105.722 85.3523 105.997 85.1157C105.24 84.9479 104.588 84.8038 104.018 84.6769C104.556 83.3409 104.98 82.2912 105.567 80.8348C104.188 81.0843 103.218 81.2607 102.194 81.4479C101.813 81.1747 101.402 80.8821 100.703 80.3809C100.07 81.2241 99.4488 82.0502 98.7002 83.0484C99.5176 83.3452 100.036 83.5346 100.268 83.6185C100.466 84.7005 100.625 85.5696 100.813 86.5915H99.0078C98.6485 86.1677 98.2592 85.7116 97.8289 85.2061H97.8268Z" fill="#D2D2D2"/>
<path d="M457.927 76.1021C457.83 75.6482 457.755 75.289 457.712 75.0824C460.065 74.4156 462.473 75.9343 464.815 74.009C465.093 73.1872 465.461 72.0987 465.833 70.9951C464.953 70.4594 464.26 70.0378 463.514 69.5839C462.991 70.666 462.509 71.6663 462.027 72.6645C461.464 72.0234 461.257 71.5135 461.36 71.0747C461.487 70.5433 461.875 70.0765 462.131 69.614C461.76 69.0633 461.427 68.5664 461.104 68.0888C460.674 68.1662 460.25 68.2415 459.734 68.3362C459.91 69.2074 460.072 69.9991 460.252 70.8811H459.13C458.162 69.586 457.327 68.476 456.626 67.5381C455.58 68.3599 454.763 69.0052 454.117 69.5129C454.227 70.9198 454.315 72.0471 454.436 73.6067C455.135 74.465 455.718 76.3215 457.923 76.1021H457.927Z" fill="#D2D2D2"/>
<path d="M228.854 117.883C227.963 116.782 227.238 115.88 226.507 114.975C224.932 115.315 223.336 115.661 221.52 116.052C220.402 116.769 219.033 117.646 217.34 118.731C217.527 119.675 217.771 120.897 218.009 122.095C219.399 122.706 220.694 123.278 221.72 123.73C223.876 122.5 225.722 121.446 227.638 120.353C228.06 119.494 228.503 118.595 228.854 117.885V117.883Z" fill="#D2D2D2"/>
<path d="M115.288 80.8694C112.208 78.9892 109.149 78.8709 107.746 80.5876C107.933 80.7425 108.118 80.8952 108.331 81.0716C107.03 82.1838 107.561 83.7133 107.621 85.0514C107.684 86.4927 108.161 87.9146 108.51 89.6012C109.14 89.6356 109.835 89.6722 110.687 89.7174C110.407 88.3707 110.188 87.3059 109.94 86.1098C110.9 86.1571 111.887 86.2087 112.814 86.2539C113.662 84.4103 114.477 82.6377 115.29 80.8672L115.288 80.8694Z" fill="#D2D2D2"/>
<path d="M94.0835 52.4903C96.338 52.9184 97.9191 53.2174 99.2572 53.4691C99.7821 54.6437 100.152 55.4762 100.524 56.3088C101.195 56.2249 101.679 56.1646 102.258 56.0915C101.895 54.1726 101.662 52.3935 101.172 50.6876C101.006 50.1132 100.187 49.726 99.666 49.2549C99.5713 49.3366 99.4788 49.4162 99.3841 49.498C99.197 48.9494 99.012 48.4008 99.0055 48.3836C97.362 46.9466 96.1186 45.8602 94.9246 44.8169C93.7386 45.293 93.1011 45.9183 93.0122 46.6928C93.9415 47.9491 94.7482 49.0376 95.5722 50.1519C94.2147 50.9737 93.2316 51.6901 94.0814 52.4903H94.0835Z" fill="#D2D2D2"/>
<path d="M71.4164 69.0785C71.7025 68.7774 72.0016 68.4633 72.3027 68.1449C72.0166 67.9384 71.7563 67.7491 71.1432 67.3059C72.0381 67.1898 72.5888 67.1188 72.8362 67.0865C73.1417 65.8668 73.4257 64.7352 73.7096 63.6058C73.8989 63.6123 74.0904 63.6209 74.2797 63.6273C74.5142 64.6126 74.7508 65.5957 74.9853 66.581C75.1251 66.5616 75.265 66.5423 75.4026 66.5229C75.5081 65.97 75.6113 65.4193 75.7081 64.9095C76.2287 64.6836 76.6762 64.4878 77.2269 64.249C77.0698 63.253 76.9236 62.3345 76.7579 61.2911C77.0053 60.9448 77.3474 60.465 77.741 59.9122C77.2721 59.4217 76.8633 58.9914 76.4051 58.5117C76.2524 58.9914 76.1233 59.3916 76.0416 59.6476C74.867 59.8025 73.7613 59.9487 72.7674 60.0821C71.1475 62.5603 69.9837 65.1956 67.1914 66.5207C67.5291 67.2349 67.8174 67.8416 68.0325 68.2955C69.4179 68.616 70.3989 68.8441 71.4143 69.0785H71.4164Z" fill="#D2D2D2"/>
<path d="M398.326 55.6463C399.266 54.9944 400.206 54.3426 401.047 53.7618C403.461 53.4542 406.004 53.6349 406.985 50.6296C406.075 49.369 405.208 48.1686 404.351 46.9811C403.777 47.0865 403.284 47.179 402.695 47.2866C402.91 46.411 403.067 45.7743 403.222 45.1397C403.093 45.0343 402.966 44.9267 402.837 44.8213C402.267 45.2408 401.387 45.5441 401.176 46.0991C400.017 49.1625 399.021 52.2903 397.969 55.3946C398.087 55.4785 398.205 55.5624 398.326 55.6463Z" fill="#D2D2D2"/>
<path d="M506.637 314.217C505.897 315.544 505.157 316.874 504.458 318.128C501.935 319.933 499.192 321.389 498.213 324.607C499.564 325.07 500.9 325.526 502.399 326.038C503.395 324.188 504.269 322.568 505.329 320.595C505.441 320.533 505.962 320.249 506.588 319.907C506.74 317.984 509.604 317.052 508.92 315.009C507.921 314.662 507.214 314.417 506.637 314.217Z" fill="#D2D2D2"/>
<path d="M166.113 157.832C165.805 158.118 165.392 158.339 165.229 158.681C164.054 161.127 162.929 163.597 161.778 166.086C164.239 166.32 166.634 166.548 168.673 166.744C169.45 167.344 169.955 167.734 170.476 168.138C171.205 166.471 171.119 166.054 169.316 162.381C168.406 162.459 167.671 162.521 166.991 162.579C166.619 161.648 166.302 160.86 165.922 159.91C166.126 159.426 167.266 158.888 166.113 157.832Z" fill="#D2D2D2"/>
<path d="M330.4 95.648H333.999C331.495 92.0016 331.386 88.2908 332.842 84.4229H329.873C329.409 86.3116 328.965 88.1144 328.537 89.8612C328.019 90.1817 327.492 90.5087 326.52 91.111C328.185 92.3136 329.527 93.2838 330.869 94.254C330.738 94.639 330.609 95.0262 330.4 95.6501V95.648Z" fill="#D2D2D2"/>
<path d="M240.244 155.577C240.472 153.662 240.681 151.911 240.888 150.162C241.006 150.171 241.122 150.18 241.24 150.186C240.999 149.648 240.756 149.108 240.528 148.598H237.824C237.601 149.476 237.403 150.253 237.207 151.023C236.512 151.053 235.942 151.079 235.408 151.102C235.378 151.711 235.355 152.215 235.329 152.716C235.456 152.735 235.583 152.755 235.71 152.774C236.131 153.462 236.555 154.151 236.94 154.779C236.093 155.441 235.443 155.947 234.632 156.582C237.166 158.384 238.289 155.401 240.242 155.577H240.244Z" fill="#D2D2D2"/>
<path d="M511.738 308.107C511.551 307.197 511.439 306.655 511.291 305.928C508.897 307.2 511.338 310.175 508.832 311.031C509.708 311.78 510.349 312.326 511.041 312.92C510.671 313.546 510.342 314.105 509.989 314.701C510.349 314.912 510.779 315.161 511.502 315.583C512.224 313.873 512.876 312.33 513.552 310.734C514.985 310.525 515.262 309.555 515.094 308.49C513.793 308.342 512.706 308.217 511.738 308.107Z" fill="#D2D2D2"/>
<path d="M461.343 171.604C460.687 173.488 460.069 175.261 459.443 177.055C460.461 177.225 461.713 177.436 462.545 177.576C463.795 176.851 464.763 176.291 466.05 175.547C466.097 175.437 466.31 174.93 466.736 173.921C463.526 175.51 462.776 172.632 461.343 171.602V171.604Z" fill="#D2D2D2"/>
<path d="M432.369 248.626C431.474 248.891 430.577 249.155 429.721 249.409C429.235 249.058 428.768 248.721 428.202 248.312C427.729 249.693 427.324 250.881 427.101 251.53C427.598 253.232 427.955 254.449 428.312 255.667C428.447 255.641 428.583 255.615 428.718 255.59C428.807 254.297 428.897 253.004 429.011 251.343C429.998 252.582 430.702 253.466 431.42 254.368C431.644 254.245 431.939 254.084 432.328 253.871C431.883 252.692 431.444 251.528 430.968 250.263C431.468 249.822 431.992 249.357 432.517 248.891C432.468 248.802 432.418 248.714 432.369 248.626Z" fill="#D2D2D2"/>
<path d="M281.101 51.6338C281.346 54.1615 281.561 56.3729 281.772 58.5521C282.267 58.38 283.009 58.1197 283.788 57.8465C283.943 58.4209 284.046 58.8038 284.14 59.1609C285.707 58.5844 285.414 57.1775 285.565 56.4418C284.872 55.3941 284.388 54.6649 283.829 53.8194C283.532 53.7506 283.05 53.6387 282.671 53.5505V51.8209C282.097 51.7521 281.621 51.6962 281.099 51.6338H281.101Z" fill="#D2D2D2"/>
<path d="M105.259 53.9208C105.354 54.6888 105.438 55.3729 105.535 56.1667C106.707 55.7107 107.621 55.3536 108.329 55.0782C108.254 53.9553 108.196 53.084 108.138 52.2063C106.83 51.1909 105.468 50.1304 104.106 49.0698C103.93 49.1666 103.756 49.2656 103.579 49.3624C103.719 50.5434 103.861 51.7223 104.014 53.0238C104.448 53.3357 104.917 53.6734 105.261 53.9208H105.259Z" fill="#D2D2D2"/>
<path d="M416.004 257.517C414.371 257.629 413.119 258.008 412.05 257.717C410.473 257.289 409.019 256.403 407.515 255.704C407.431 255.999 407.348 256.293 407.264 256.584C408.531 258.109 409.421 258.621 411.061 258.825C412.321 258.982 413.573 259.21 414.836 259.342C416.507 259.516 418.173 260.34 420.225 259.443C418.478 258.645 417.017 257.978 416.004 257.515V257.517Z" fill="#D2D2D2"/>
<path d="M465.517 313.972C465.874 316.257 466.13 318.266 467.984 319.477C468.748 318.984 469.412 318.554 470.196 318.051C470.378 317.052 470.589 315.897 470.899 314.206C469.507 314.499 468.617 314.686 467.724 314.875C467.072 314.609 466.409 314.338 465.517 313.972Z" fill="#D2D2D2"/>
<path d="M86.3458 58.3522C85.7241 57.3325 85.2788 56.5989 84.898 55.9708C85.3864 55.6997 85.9242 55.4028 86.5868 55.035C86.249 54.6736 86.0748 54.4864 85.8016 54.1938C83.9795 54.921 82.2133 55.6266 80.4536 56.3279C81.3206 57.5218 82.0627 58.5458 82.7941 59.5547C83.9515 59.1632 84.8228 58.8663 86.3458 58.35V58.3522Z" fill="#D2D2D2"/>
<path d="M124.36 213.611C127.837 211.819 130.22 214.232 132.737 214.46C133.596 215.398 134.34 216.207 134.97 216.896H138.582C138.595 216.743 138.608 216.592 138.621 216.44C135.992 215.097 133.404 213.669 130.722 212.447C128.925 211.629 126.232 212.12 124.363 213.611H124.36Z" fill="#D2D2D2"/>
<path d="M470.669 75.687C471.698 75.6203 472.541 75.5644 473.612 75.4956C473.664 74.7556 473.707 74.1511 473.756 73.4326C471.614 73.0539 469.893 71.6987 467.675 72.5054C467.875 74.3791 470.254 74.1317 470.667 75.6892L470.669 75.687Z" fill="#D2D2D2"/>
</svg>
