<svg width="28" height="28" viewBox="0 0 28 28" fill="none" xmlns="http://www.w3.org/2000/svg">
<g clip-path="url(#clip0_258_7059)">
<path d="M22.728 14.4084C20.8963 9.64842 14.3746 9.39175 15.9496 2.47342C16.0663 1.96008 15.518 1.56342 15.0746 1.83175C10.8396 4.32842 7.79464 9.33342 10.3496 15.8901C10.5596 16.4267 9.92964 16.9284 9.47464 16.5784C7.36297 14.9801 7.1413 12.6817 7.32797 11.0367C7.39797 10.4301 6.60464 10.1384 6.2663 10.6401C5.47297 11.8534 4.66797 13.8134 4.66797 16.7651C5.1113 23.2984 10.6296 25.3051 12.613 25.5617C15.448 25.9234 18.5163 25.3984 20.7213 23.3801C23.148 21.1284 24.0346 17.5351 22.728 14.4084ZM11.9013 20.2767C13.5813 19.8684 14.4446 18.6551 14.678 17.5817C15.063 15.9134 13.558 14.2801 14.573 11.6434C14.958 13.8251 18.388 15.1901 18.388 17.5701C18.4813 20.5217 15.2846 23.0534 11.9013 20.2767Z" fill="#EE5D50"/>
</g>
<defs>
<clipPath id="clip0_258_7059">
<rect width="28" height="28" fill="white"/>
</clipPath>
</defs>
</svg>
