<svg width="20" height="20" viewBox="0 0 20 20" fill="none" xmlns="http://www.w3.org/2000/svg">
<path fill-rule="evenodd" clip-rule="evenodd" d="M17.4539 8.90764C17.4539 8.90764 17.7503 9.07257 17.9227 9.36497C17.9227 9.36497 18.0959 9.65876 18.0959 9.99981C18.0959 9.99981 18.0959 10.3409 17.9227 10.6347C17.9227 10.6347 17.7495 10.9284 17.451 11.0936L4.25857 18.4826C4.25857 18.4826 3.91401 18.673 3.52596 18.634C3.52596 18.634 3.13791 18.595 2.84088 18.3423C2.84088 18.3423 2.54385 18.0895 2.44324 17.7127C2.44324 17.7127 2.34263 17.3359 2.47413 16.9688L4.95858 9.99981L2.47382 3.03C2.47382 3.03 2.34263 2.6637 2.44324 2.2869C2.44324 2.2869 2.54385 1.9101 2.84088 1.65737C2.84088 1.65737 3.13791 1.40463 3.52596 1.36564C3.52596 1.36564 3.91401 1.32665 4.25538 1.51524L17.451 8.90605L17.4539 8.90764ZM3.65093 2.60938L16.8431 9.99823L16.8459 9.99981L3.65093 17.3902L6.13187 10.4311C6.13187 10.4311 6.30086 9.99981 6.13187 9.5685L3.65093 2.60938Z" fill="black" fill-opacity="0.2"/>
<path d="M5.62503 10.6248H10.625C10.9702 10.6248 11.25 10.345 11.25 9.99985C11.25 9.65467 10.9702 9.37485 10.625 9.37485H5.62503C5.27985 9.37485 5.00003 9.65467 5.00003 9.99985C5.00003 10.345 5.27985 10.6248 5.62503 10.6248Z" fill="black" fill-opacity="0.2"/>
</svg>
