<svg width="24" height="24" viewBox="0 0 24 24" fill="none" xmlns="http://www.w3.org/2000/svg">
<g clip-path="url(#clip0_258_7073)">
<path d="M13.0508 9.79005L10.0008 7.50005V16.5L13.0508 14.21L16.0008 12L13.0508 9.79005ZM13.0508 9.79005L10.0008 7.50005V16.5L13.0508 14.21L16.0008 12L13.0508 9.79005ZM13.0508 9.79005L10.0008 7.50005V16.5L13.0508 14.21L16.0008 12L13.0508 9.79005ZM11.0008 4.07005V2.05005C8.99078 2.25005 7.16078 3.05005 5.68078 4.26005L7.10078 5.69005C8.21078 4.83005 9.54078 4.25005 11.0008 4.07005ZM5.69078 7.10005L4.26078 5.68005C3.05078 7.16005 2.25078 8.99005 2.05078 11H4.07078C4.25078 9.54005 4.83078 8.21005 5.69078 7.10005ZM4.07078 13H2.05078C2.25078 15.01 3.05078 16.84 4.26078 18.32L5.69078 16.89C4.83078 15.79 4.25078 14.46 4.07078 13ZM5.68078 19.74C7.16078 20.9501 9.00078 21.75 11.0008 21.9501V19.93C9.54078 19.75 8.21078 19.17 7.10078 18.31L5.68078 19.74ZM22.0008 12C22.0008 17.16 18.0808 21.42 13.0508 21.9501V19.93C16.9708 19.41 20.0008 16.05 20.0008 12C20.0008 7.95005 16.9708 4.59005 13.0508 4.07005V2.05005C18.0808 2.58005 22.0008 6.84005 22.0008 12Z" fill="#EE5D50"/>
</g>
<defs>
<clipPath id="clip0_258_7073">
<rect width="24" height="24" fill="white"/>
</clipPath>
</defs>
</svg>
